<svg xmlns="http://www.w3.org/2000/svg" xmlns:xlink="http://www.w3.org/1999/xlink" width="36px" height="20px" viewBox="0 0 36 20" version="1.1"><defs><radialGradient id="radial0" gradientUnits="userSpaceOnUse" cx="-818.606995" cy="2126.690918" fx="-818.606995" fy="2126.690918" r="431.117004" gradientTransform="matrix(0.0767736,0,0,-0.0439337,67.320016,97.136549)"><stop offset="0" style="stop-color:rgb(87.058824%,44.313726%,9.803922%);stop-opacity:1;"/><stop offset="1" style="stop-color:rgb(71.764708%,22.352941%,3.529412%);stop-opacity:1;"/></radialGradient></defs><g id="surface1"><path style=" stroke:none;fill-rule:nonzero;fill:url(#radial0);" d="M 1.101562 0 L 34.898438 0 C 35.507812 0 36 0.5 36 1.117188 L 36 18.882812 C 36 19.5 35.507812 20 34.898438 20 L 1.101562 20 C 0.492188 20 0 19.5 0 18.882812 L 0 1.117188 C 0 0.5 0.492188 0 1.101562 0 Z M 1.101562 0 "/><path style=" stroke:none;fill-rule:nonzero;fill:rgb(100%,100%,100%);fill-opacity:1;" d="M 9.765625 6.609375 C 9.761719 6.515625 9.796875 6.441406 9.917969 6.441406 C 10.039062 6.441406 11.273438 6.480469 12.105469 6.480469 C 13.828125 6.480469 14.242188 6.339844 14.535156 6.339844 C 14.703125 6.34375 14.738281 6.472656 14.738281 6.546875 C 14.738281 6.621094 14.660156 6.78125 14.660156 6.988281 C 14.660156 7.195312 14.707031 7.414062 14.707031 7.597656 C 14.707031 7.777344 14.554688 7.839844 14.472656 7.839844 C 14.390625 7.839844 14.335938 7.808594 14.332031 7.652344 C 14.324219 7.359375 14.535156 6.929688 12.445312 6.929688 C 11.378906 6.929688 11.351562 7.054688 11.351562 7.398438 C 11.351562 7.742188 11.363281 8.878906 11.363281 9.054688 C 11.363281 9.230469 11.414062 9.285156 11.554688 9.285156 L 13.078125 9.285156 C 13.375 9.285156 13.675781 9.121094 13.710938 8.699219 C 13.722656 8.472656 13.785156 8.464844 13.894531 8.464844 C 14 8.464844 14.101562 8.550781 14.085938 8.761719 C 14.066406 8.976562 14.023438 9.199219 14.023438 9.503906 C 14.023438 9.808594 14.085938 10.109375 14.085938 10.328125 C 14.085938 10.546875 13.796875 10.601562 13.742188 10.363281 C 13.683594 10.125 13.601562 9.722656 12.933594 9.722656 L 11.574219 9.722656 C 11.425781 9.722656 11.351562 9.808594 11.351562 10.054688 L 11.351562 11.8125 C 11.351562 12.117188 11.445312 12.441406 12.054688 12.441406 C 12.664062 12.441406 13.765625 12.507812 14.273438 12.109375 C 14.488281 11.925781 14.554688 11.675781 14.628906 11.265625 C 14.664062 11.078125 15.066406 11.082031 15.050781 11.515625 C 15.035156 11.71875 14.84375 12.15625 14.84375 12.433594 C 14.84375 12.667969 14.898438 12.980469 14.683594 12.980469 C 14.503906 12.980469 14.582031 12.886719 13.789062 12.886719 C 12.996094 12.886719 10.265625 12.90625 9.808594 12.90625 C 9.640625 12.90625 9.605469 12.855469 9.605469 12.75 C 9.605469 12.644531 9.664062 12.566406 9.808594 12.566406 C 9.953125 12.566406 10.5625 12.574219 10.5625 11.789062 L 10.5625 7.714844 C 10.5625 7.292969 10.46875 6.871094 9.957031 6.816406 C 9.757812 6.796875 9.769531 6.710938 9.765625 6.609375 M 15.351562 9.074219 C 15.351562 8.941406 15.417969 8.886719 15.578125 8.835938 C 15.871094 8.71875 16.210938 8.386719 16.5 7.589844 C 16.589844 7.339844 16.902344 7.40625 16.863281 7.664062 C 16.824219 7.917969 16.769531 8.390625 16.769531 8.65625 L 18.027344 8.65625 C 18.15625 8.65625 18.175781 8.8125 18.175781 8.933594 C 18.175781 9.058594 18.140625 9.160156 18.035156 9.160156 L 16.769531 9.160156 L 16.769531 11.371094 C 16.769531 12.167969 17.039062 12.355469 17.398438 12.355469 C 17.605469 12.355469 17.777344 12.269531 17.933594 12.160156 C 18.039062 12.082031 18.273438 12.269531 18.15625 12.425781 C 18.039062 12.578125 17.625 13.03125 17.03125 13.03125 C 16.441406 13.03125 16.015625 12.589844 16.023438 11.84375 C 16.03125 11.097656 16.0625 9.855469 16.0625 9.683594 C 16.0625 9.511719 15.839844 9.269531 15.59375 9.269531 C 15.390625 9.265625 15.351562 9.15625 15.351562 9.074219 M 20.46875 8.53125 C 20.878906 8.53125 21.195312 8.675781 21.332031 8.675781 C 21.464844 8.675781 21.515625 8.503906 21.664062 8.503906 C 21.8125 8.503906 21.847656 8.675781 21.808594 8.820312 C 21.769531 8.964844 21.742188 9.308594 21.761719 9.691406 C 21.765625 9.824219 21.660156 9.90625 21.554688 9.90625 C 21.453125 9.90625 21.414062 9.859375 21.371094 9.65625 C 21.324219 9.457031 21.148438 8.964844 20.441406 8.964844 C 19.933594 8.964844 19.738281 9.308594 19.738281 9.535156 C 19.738281 9.757812 19.859375 9.972656 20.398438 10.214844 C 20.96875 10.464844 22.023438 10.734375 22.023438 11.753906 C 21.988281 12.714844 21.046875 13.019531 20.496094 13.019531 C 20.03125 13.019531 19.59375 12.878906 19.402344 12.878906 C 19.210938 12.878906 19.136719 13.042969 19.015625 13.042969 C 18.894531 13.042969 18.808594 12.902344 18.855469 12.753906 C 18.902344 12.609375 18.964844 12.5 18.964844 12.355469 C 18.964844 12.210938 18.882812 11.871094 18.929688 11.585938 C 18.976562 11.304688 19.351562 11.265625 19.347656 11.539062 C 19.34375 11.8125 19.464844 12.59375 20.4375 12.59375 C 21.226562 12.59375 21.316406 12.039062 21.316406 11.878906 C 21.316406 11.683594 21.277344 11.40625 20.335938 11.027344 C 19.390625 10.648438 19.023438 10.296875 19.023438 9.691406 C 19.023438 9.089844 19.554688 8.53125 20.46875 8.53125 M 22.296875 8.785156 C 22.296875 8.691406 22.300781 8.648438 22.40625 8.648438 C 22.507812 8.648438 23.0625 8.667969 23.351562 8.667969 C 23.644531 8.667969 24.179688 8.648438 24.289062 8.648438 C 24.367188 8.648438 24.34375 8.746094 24.34375 8.8125 C 24.34375 8.878906 24.351562 8.988281 24.214844 8.988281 C 24.074219 8.988281 23.8125 9.035156 23.8125 9.269531 C 23.8125 9.503906 23.875 9.570312 23.964844 9.820312 C 24.066406 10.097656 24.789062 11.777344 24.789062 11.777344 C 24.789062 11.777344 25.351562 10.601562 25.523438 10.269531 C 25.691406 9.941406 25.796875 9.527344 25.796875 9.339844 C 25.796875 9.15625 25.609375 9.03125 25.453125 9 C 25.296875 8.972656 25.21875 8.980469 25.21875 8.789062 C 25.21875 8.691406 25.234375 8.640625 25.3125 8.640625 C 25.390625 8.640625 25.863281 8.671875 26.210938 8.671875 C 26.558594 8.671875 26.960938 8.648438 27.074219 8.648438 C 27.179688 8.648438 27.148438 8.738281 27.148438 8.8125 C 27.148438 8.886719 27.140625 8.960938 27.050781 8.976562 C 26.957031 8.988281 26.554688 8.972656 26.132812 9.878906 C 25.710938 10.785156 24.875 12.613281 24.269531 13.804688 C 23.957031 14.429688 23.367188 15.113281 22.75 15.113281 C 22.425781 15.117188 22.300781 14.835938 22.300781 14.695312 C 22.300781 14.554688 22.378906 14.324219 22.742188 14.324219 C 22.988281 14.324219 23.050781 14.441406 23.167969 14.441406 C 23.414062 14.441406 24.03125 13.84375 24.203125 12.769531 C 24.230469 12.523438 23.980469 11.917969 23.882812 11.644531 C 23.738281 11.238281 23.296875 10.066406 22.980469 9.367188 C 22.871094 9.128906 22.582031 9.007812 22.398438 8.984375 C 22.3125 8.964844 22.296875 8.933594 22.296875 8.785156 "/></g></svg>