<?xml version="1.0" encoding="iso-8859-1"?>
<!-- Generator: Adobe Illustrator 18.0.0, SVG Export Plug-In . SVG Version: 6.00 Build 0)  -->
<!DOCTYPE svg PUBLIC "-//W3C//DTD SVG 1.1//EN" "http://www.w3.org/Graphics/SVG/1.1/DTD/svg11.dtd">
<svg version="1.1" id="Capa_1" xmlns="http://www.w3.org/2000/svg" xmlns:xlink="http://www.w3.org/1999/xlink" x="0px" y="0px"
	 viewBox="0 0 297.887 297.887" style="enable-background:new 0 0 297.887 297.887;" xml:space="preserve">
<g>
	<path d="M31.271,153.588h8.533c1.53,0,2.771-1.241,2.771-2.771v-8.533c0-1.53-1.24-2.771-2.771-2.771h-8.533
		c-1.53,0-2.771,1.24-2.771,2.771v8.533C28.5,152.347,29.741,153.588,31.271,153.588z"/>
	<path d="M31.271,172.941h8.533c1.53,0,2.771-1.241,2.771-2.771v-8.533c0-1.53-1.24-2.771-2.771-2.771h-8.533
		c-1.53,0-2.771,1.24-2.771,2.771v8.533C28.5,171.7,29.741,172.941,31.271,172.941z"/>
	<path d="M31.271,192.293h8.533c1.53,0,2.771-1.24,2.771-2.771v-8.533c0-1.53-1.24-2.771-2.771-2.771h-8.533
		c-1.53,0-2.771,1.241-2.771,2.771v8.533C28.5,191.053,29.741,192.293,31.271,192.293z"/>
	<path d="M55.389,153.588h8.533c1.53,0,2.771-1.241,2.771-2.771v-8.533c0-1.53-1.241-2.771-2.771-2.771h-8.533
		c-1.53,0-2.771,1.24-2.771,2.771v8.533C52.618,152.347,53.859,153.588,55.389,153.588z"/>
	<path d="M55.389,172.941h8.533c1.53,0,2.771-1.241,2.771-2.771v-8.533c0-1.53-1.241-2.771-2.771-2.771h-8.533
		c-1.53,0-2.771,1.24-2.771,2.771v8.533C52.618,171.7,53.859,172.941,55.389,172.941z"/>
	<path d="M66.693,189.523v-8.533c0-1.53-1.241-2.771-2.771-2.771h-8.533c-1.53,0-2.771,1.241-2.771,2.771v8.533
		c0,1.53,1.24,2.771,2.771,2.771h8.533C65.453,192.293,66.693,191.053,66.693,189.523z"/>
	<path d="M79.507,153.588h8.533c1.53,0,2.771-1.241,2.771-2.771v-8.533c0-1.53-1.24-2.771-2.771-2.771h-8.533
		c-1.53,0-2.771,1.24-2.771,2.771v8.533C76.736,152.347,77.977,153.588,79.507,153.588z"/>
	<path d="M79.507,172.941h8.533c1.53,0,2.771-1.241,2.771-2.771v-8.533c0-1.53-1.24-2.771-2.771-2.771h-8.533
		c-1.53,0-2.771,1.24-2.771,2.771v8.533C76.736,171.7,77.977,172.941,79.507,172.941z"/>
	<path d="M79.507,192.293h8.533c1.53,0,2.771-1.24,2.771-2.771v-8.533c0-1.53-1.24-2.771-2.771-2.771h-8.533
		c-1.53,0-2.771,1.241-2.771,2.771v8.533C76.736,191.053,77.977,192.293,79.507,192.293z"/>
	<path d="M103.625,153.588h8.533c1.53,0,2.771-1.241,2.771-2.771v-8.533c0-1.53-1.241-2.771-2.771-2.771h-8.533
		c-1.53,0-2.771,1.24-2.771,2.771v8.533C100.854,152.347,102.095,153.588,103.625,153.588z"/>
	<path d="M103.625,172.941h8.533c1.53,0,2.771-1.241,2.771-2.771v-8.533c0-1.53-1.241-2.771-2.771-2.771h-8.533
		c-1.53,0-2.771,1.24-2.771,2.771v8.533C100.854,171.7,102.095,172.941,103.625,172.941z"/>
	<path d="M103.625,192.293h8.533c1.53,0,2.771-1.24,2.771-2.771v-8.533c0-1.53-1.241-2.771-2.771-2.771h-8.533
		c-1.53,0-2.771,1.241-2.771,2.771v8.533C100.854,191.053,102.095,192.293,103.625,192.293z"/>
	<path d="M127.743,153.588h8.533c1.53,0,2.771-1.241,2.771-2.771v-8.533c0-1.53-1.24-2.771-2.771-2.771h-8.533
		c-1.53,0-2.771,1.24-2.771,2.771v8.533C124.972,152.347,126.213,153.588,127.743,153.588z"/>
	<path d="M127.743,172.941h8.533c1.53,0,2.771-1.241,2.771-2.771v-8.533c0-1.53-1.24-2.771-2.771-2.771h-8.533
		c-1.53,0-2.771,1.24-2.771,2.771v8.533C124.972,171.7,126.213,172.941,127.743,172.941z"/>
	<path d="M127.743,192.293h8.533c1.53,0,2.771-1.24,2.771-2.771v-8.533c0-1.53-1.24-2.771-2.771-2.771h-8.533
		c-1.53,0-2.771,1.241-2.771,2.771v8.533C124.972,191.053,126.213,192.293,127.743,192.293z"/>
	<path d="M151.861,153.588h8.533c1.53,0,2.771-1.241,2.771-2.771v-8.533c0-1.53-1.24-2.771-2.771-2.771h-8.533
		c-1.53,0-2.771,1.24-2.771,2.771v8.533C149.09,152.347,150.331,153.588,151.861,153.588z"/>
	<path d="M151.861,172.941h8.533c1.53,0,2.771-1.241,2.771-2.771v-8.533c0-1.53-1.24-2.771-2.771-2.771h-8.533
		c-1.53,0-2.771,1.24-2.771,2.771v8.533C149.09,171.7,150.331,172.941,151.861,172.941z"/>
	<path d="M151.861,192.293h8.533c1.53,0,2.771-1.24,2.771-2.771v-8.533c0-1.53-1.24-2.771-2.771-2.771h-8.533
		c-1.53,0-2.771,1.241-2.771,2.771v8.533C149.09,191.053,150.331,192.293,151.861,192.293z"/>
	<path d="M184.512,139.513h-8.533c-1.53,0-2.771,1.24-2.771,2.771v8.533c0,1.53,1.24,2.771,2.771,2.771h8.533
		c1.53,0,2.771-1.241,2.771-2.771v-8.533C187.283,140.753,186.042,139.513,184.512,139.513z"/>
	<path d="M184.512,158.866h-8.533c-1.53,0-2.771,1.24-2.771,2.771v8.533c0,1.53,1.24,2.771,2.771,2.771h8.533
		c1.53,0,2.771-1.241,2.771-2.771v-8.533C187.283,160.106,186.042,158.866,184.512,158.866z"/>
	<path d="M184.512,178.219h-8.533c-1.53,0-2.771,1.241-2.771,2.771v8.533c0,1.53,1.24,2.771,2.771,2.771h8.533
		c1.53,0,2.771-1.24,2.771-2.771v-8.533C187.283,179.459,186.042,178.219,184.512,178.219z"/>
	<path d="M209.846,153.588h8.533c1.53,0,2.771-1.241,2.771-2.771v-8.533c0-1.53-1.24-2.771-2.771-2.771h-8.533
		c-1.53,0-2.771,1.24-2.771,2.771v8.533C207.076,152.347,208.316,153.588,209.846,153.588z"/>
	<path d="M209.846,172.941h8.533c1.53,0,2.771-1.241,2.771-2.771v-8.533c0-1.53-1.24-2.771-2.771-2.771h-8.533
		c-1.53,0-2.771,1.24-2.771,2.771v8.533C207.076,171.7,208.316,172.941,209.846,172.941z"/>
	<path d="M209.846,192.293h8.533c1.53,0,2.771-1.24,2.771-2.771v-8.533c0-1.53-1.24-2.771-2.771-2.771h-8.533
		c-1.53,0-2.771,1.241-2.771,2.771v8.533C207.076,191.053,208.316,192.293,209.846,192.293z"/>
	<path d="M242.498,139.513h-8.533c-1.53,0-2.771,1.24-2.771,2.771v8.533c0,1.53,1.241,2.771,2.771,2.771h8.533
		c1.53,0,2.771-1.241,2.771-2.771v-8.533C245.268,140.753,244.028,139.513,242.498,139.513z"/>
	<path d="M242.498,158.866h-8.533c-1.53,0-2.771,1.24-2.771,2.771v8.533c0,1.53,1.241,2.771,2.771,2.771h8.533
		c1.53,0,2.771-1.241,2.771-2.771v-8.533C245.268,160.106,244.028,158.866,242.498,158.866z"/>
	<path d="M242.498,178.219h-8.533c-1.53,0-2.771,1.241-2.771,2.771v8.533c0,1.53,1.241,2.771,2.771,2.771h8.533
		c1.53,0,2.771-1.24,2.771-2.771v-8.533C245.268,179.459,244.028,178.219,242.498,178.219z"/>
	<path d="M242.498,197.572h-32.651c-1.53,0-2.771,1.241-2.771,2.771v8.533c0,1.53,1.24,2.771,2.771,2.771h32.651
		c1.53,0,2.771-1.241,2.771-2.771v-8.533C245.268,198.812,244.028,197.572,242.498,197.572z"/>
	<path d="M266.615,139.513h-8.533c-1.53,0-2.771,1.24-2.771,2.771v8.533c0,1.53,1.24,2.771,2.771,2.771h8.533
		c1.53,0,2.771-1.241,2.771-2.771v-8.533C269.386,140.753,268.146,139.513,266.615,139.513z"/>
	<path d="M266.615,158.866h-8.533c-1.53,0-2.771,1.24-2.771,2.771v8.533c0,1.53,1.24,2.771,2.771,2.771h8.533
		c1.53,0,2.771-1.241,2.771-2.771v-8.533C269.386,160.106,268.146,158.866,266.615,158.866z"/>
	<path d="M266.615,178.219h-8.533c-1.53,0-2.771,1.241-2.771,2.771v8.533c0,1.53,1.24,2.771,2.771,2.771h8.533
		c1.53,0,2.771-1.24,2.771-2.771v-8.533C269.386,179.459,268.146,178.219,266.615,178.219z"/>
	<path d="M266.615,197.572h-8.533c-1.53,0-2.771,1.241-2.771,2.771v8.533c0,1.53,1.24,2.771,2.771,2.771h8.533
		c1.53,0,2.771-1.241,2.771-2.771v-8.533C269.386,198.812,268.146,197.572,266.615,197.572z"/>
	<path d="M49.848,197.572H31.271c-1.53,0-2.771,1.241-2.771,2.771v8.533c0,1.53,1.24,2.771,2.771,2.771h18.576
		c1.53,0,2.771-1.241,2.771-2.771v-8.533C52.618,198.812,51.378,197.572,49.848,197.572z"/>
	<path d="M184.512,197.572H66.898c-1.53,0-2.771,1.241-2.771,2.771v8.533c0,1.53,1.241,2.771,2.771,2.771h117.614
		c1.53,0,2.771-1.241,2.771-2.771v-8.533C187.283,198.812,186.042,197.572,184.512,197.572z"/>
	<path d="M278.516,110.644H54.552c2.604-8.924,10.845-15.469,20.599-15.469h19.838c10.423,0,18.902-8.479,18.902-18.902
		s-8.479-18.902-18.902-18.902h-4.178c-3.313,0-6,2.687-6,6s2.687,6,6,6h4.178c3.806,0,6.902,3.096,6.902,6.902
		s-3.097,6.902-6.902,6.902H75.151c-16.406,0-30.083,11.869-32.919,27.469H19.371C8.689,110.644,0,119.334,0,130.015v91.129
		c0,10.681,8.689,19.371,19.371,19.371h259.145c10.682,0,19.371-8.69,19.371-19.371v-91.129
		C297.887,119.334,289.197,110.644,278.516,110.644z M285.887,221.144c0,4.064-3.307,7.371-7.371,7.371H19.371
		c-4.064,0-7.371-3.307-7.371-7.371v-91.129c0-4.064,3.307-7.371,7.371-7.371h259.145c4.064,0,7.371,3.307,7.371,7.371V221.144z"/>
</g>
<g>
</g>
<g>
</g>
<g>
</g>
<g>
</g>
<g>
</g>
<g>
</g>
<g>
</g>
<g>
</g>
<g>
</g>
<g>
</g>
<g>
</g>
<g>
</g>
<g>
</g>
<g>
</g>
<g>
</g>
</svg>
