<svg xmlns="http://www.w3.org/2000/svg" xmlns:xlink="http://www.w3.org/1999/xlink" width="20px" height="20px" viewBox="0 0 20 20" version="1.1"><g id="surface1"><path style=" stroke:none;fill-rule:nonzero;fill:rgb(36.078432%,37.64706%,37.254903%);fill-opacity:1;" d="M 7.246094 14.605469 C 7.375 14.925781 7.34375 15.25 7.148438 15.3125 L 6.214844 15.667969 C 6.054688 15.734375 5.796875 15.539062 5.667969 15.21875 L 2.125 5.039062 C 1.996094 4.71875 2.027344 4.394531 2.222656 4.332031 L 2.542969 4.203125 C 2.707031 4.136719 2.964844 4.332031 3.089844 4.652344 Z M 7.246094 14.605469 "/><path style=" stroke:none;fill-rule:nonzero;fill:rgb(36.078432%,37.64706%,37.254903%);fill-opacity:1;" d="M 11.789062 14.605469 C 11.660156 14.925781 11.691406 15.25 11.882812 15.3125 L 12.816406 15.667969 C 12.980469 15.734375 13.238281 15.539062 13.367188 15.21875 L 16.941406 5.074219 C 17.070312 4.75 17.035156 4.429688 16.84375 4.363281 L 16.523438 4.234375 C 16.359375 4.171875 16.101562 4.363281 15.972656 4.6875 Z M 11.789062 14.605469 "/><path style=" stroke:none;fill-rule:nonzero;fill:rgb(36.078432%,37.64706%,37.254903%);fill-opacity:1;" d="M 10.339844 12.964844 C 10.339844 13.316406 10.175781 13.542969 10.015625 13.542969 L 9.019531 13.542969 C 8.824219 13.542969 8.695312 13.285156 8.695312 12.964844 L 9.019531 2.238281 C 9.019531 1.882812 9.179688 1.625 9.339844 1.625 L 9.660156 1.625 C 9.855469 1.625 9.984375 1.882812 9.984375 2.207031 Z M 10.339844 12.964844 "/><path style=" stroke:none;fill-rule:nonzero;fill:rgb(68.627453%,73.725492%,72.156864%);fill-opacity:1;" d="M 19.96875 17.730469 C 19.96875 18.082031 19.679688 18.375 19.292969 18.375 L 0.675781 18.375 C 0.289062 18.375 0 18.117188 0 17.730469 L 0 13.640625 C 0 13.253906 0.289062 12.898438 0.675781 12.898438 L 19.324219 12.898438 C 19.679688 12.898438 20 13.253906 20 13.640625 L 20 17.730469 Z M 19.96875 17.730469 "/><path style=" stroke:none;fill-rule:nonzero;fill:rgb(59.607846%,63.921571%,62.352943%);fill-opacity:1;" d="M 0.644531 12.898438 L 19.292969 12.898438 C 19.644531 12.898438 19.96875 13.253906 19.96875 13.640625 L 19.96875 17.730469 C 19.96875 18.082031 19.644531 18.375 19.292969 18.375 "/><path style=" stroke:none;fill-rule:nonzero;fill:rgb(21.176471%,24.705882%,24.313726%);fill-opacity:1;" d="M 0 14.1875 L 19.96875 14.1875 L 19.96875 17.085938 L 0 17.085938 Z M 0 14.1875 "/><path style=" stroke:none;fill-rule:nonzero;fill:rgb(6.666667%,15.686275%,15.294118%);fill-opacity:1;" d="M 19.96875 17.085938 L 19.96875 14.1875 L 0 14.1875 "/><path style=" stroke:none;fill-rule:nonzero;fill:rgb(100%,28.235295%,64.313728%);fill-opacity:1;" d="M 3.253906 15.699219 C 3.253906 15.949219 3.050781 16.152344 2.800781 16.152344 C 2.554688 16.152344 2.351562 15.949219 2.351562 15.699219 C 2.351562 15.453125 2.554688 15.25 2.800781 15.25 C 3.050781 15.25 3.253906 15.453125 3.253906 15.699219 Z M 3.253906 15.699219 "/><path style=" stroke:none;fill-rule:nonzero;fill:rgb(93.725491%,9.411765%,47.843137%);fill-opacity:1;" d="M 3.089844 15.992188 C 2.929688 16.152344 2.640625 16.152344 2.480469 15.992188 C 2.320312 15.828125 2.320312 15.539062 2.480469 15.378906 "/><path style=" stroke:none;fill-rule:nonzero;fill:rgb(29.019609%,100%,65.882355%);fill-opacity:1;" d="M 5.3125 15.699219 C 5.3125 15.949219 5.113281 16.152344 4.863281 16.152344 C 4.613281 16.152344 4.414062 15.949219 4.414062 15.699219 C 4.414062 15.453125 4.613281 15.25 4.863281 15.25 C 5.113281 15.25 5.3125 15.453125 5.3125 15.699219 Z M 5.3125 15.699219 "/><path style=" stroke:none;fill-rule:nonzero;fill:rgb(21.176471%,90.980393%,56.078434%);fill-opacity:1;" d="M 5.152344 15.992188 C 4.992188 16.152344 4.703125 16.152344 4.542969 15.992188 C 4.378906 15.828125 4.378906 15.539062 4.542969 15.378906 "/><path style=" stroke:none;fill-rule:nonzero;fill:rgb(90.980393%,75.294119%,9.411765%);fill-opacity:1;" d="M 7.34375 15.699219 C 7.34375 15.949219 7.140625 16.152344 6.890625 16.152344 C 6.644531 16.152344 6.441406 15.949219 6.441406 15.699219 C 6.441406 15.453125 6.644531 15.25 6.890625 15.25 C 7.140625 15.25 7.34375 15.453125 7.34375 15.699219 Z M 7.34375 15.699219 "/><path style=" stroke:none;fill-rule:nonzero;fill:rgb(83.92157%,68.627453%,2.745098%);fill-opacity:1;" d="M 7.214844 15.992188 C 7.054688 16.152344 6.761719 16.152344 6.601562 15.992188 C 6.441406 15.828125 6.441406 15.539062 6.601562 15.378906 "/><path style=" stroke:none;fill-rule:nonzero;fill:rgb(90.980393%,75.294119%,9.411765%);fill-opacity:1;" d="M 9.402344 15.699219 C 9.402344 15.949219 9.203125 16.152344 8.953125 16.152344 C 8.703125 16.152344 8.503906 15.949219 8.503906 15.699219 C 8.503906 15.453125 8.703125 15.25 8.953125 15.25 C 9.203125 15.25 9.402344 15.453125 9.402344 15.699219 Z M 9.402344 15.699219 "/><path style=" stroke:none;fill-rule:nonzero;fill:rgb(83.92157%,68.627453%,2.745098%);fill-opacity:1;" d="M 9.273438 15.992188 C 9.113281 16.152344 8.824219 16.152344 8.664062 15.992188 C 8.503906 15.828125 8.503906 15.539062 8.664062 15.378906 "/><path style=" stroke:none;fill-rule:nonzero;fill:rgb(90.980393%,75.294119%,9.411765%);fill-opacity:1;" d="M 11.464844 15.699219 C 11.464844 15.949219 11.261719 16.152344 11.015625 16.152344 C 10.765625 16.152344 10.5625 15.949219 10.5625 15.699219 C 10.5625 15.453125 10.765625 15.25 11.015625 15.25 C 11.261719 15.25 11.464844 15.453125 11.464844 15.699219 Z M 11.464844 15.699219 "/><path style=" stroke:none;fill-rule:nonzero;fill:rgb(83.92157%,68.627453%,2.745098%);fill-opacity:1;" d="M 11.335938 15.992188 C 11.175781 16.152344 10.886719 16.152344 10.726562 15.992188 C 10.5625 15.828125 10.5625 15.539062 10.726562 15.378906 "/><path style=" stroke:none;fill-rule:nonzero;fill:rgb(90.980393%,75.294119%,9.411765%);fill-opacity:1;" d="M 13.527344 15.699219 C 13.527344 15.949219 13.324219 16.152344 13.074219 16.152344 C 12.828125 16.152344 12.625 15.949219 12.625 15.699219 C 12.625 15.453125 12.828125 15.25 13.074219 15.25 C 13.324219 15.25 13.527344 15.453125 13.527344 15.699219 Z M 13.527344 15.699219 "/><path style=" stroke:none;fill-rule:nonzero;fill:rgb(83.92157%,68.627453%,2.745098%);fill-opacity:1;" d="M 13.367188 15.992188 C 13.203125 16.152344 12.914062 16.152344 12.753906 15.992188 C 12.59375 15.828125 12.59375 15.539062 12.753906 15.378906 "/><path style=" stroke:none;fill-rule:nonzero;fill:rgb(90.980393%,75.294119%,9.411765%);fill-opacity:1;" d="M 15.554688 15.699219 C 15.554688 15.949219 15.355469 16.152344 15.105469 16.152344 C 14.855469 16.152344 14.652344 15.949219 14.652344 15.699219 C 14.652344 15.453125 14.855469 15.25 15.105469 15.25 C 15.355469 15.25 15.554688 15.453125 15.554688 15.699219 Z M 15.554688 15.699219 "/><path style=" stroke:none;fill-rule:nonzero;fill:rgb(83.92157%,68.627453%,2.745098%);fill-opacity:1;" d="M 15.425781 15.992188 C 15.265625 16.152344 14.976562 16.152344 14.816406 15.992188 C 14.652344 15.828125 14.652344 15.539062 14.816406 15.378906 "/><path style=" stroke:none;fill-rule:nonzero;fill:rgb(90.980393%,75.294119%,9.411765%);fill-opacity:1;" d="M 17.617188 15.699219 C 17.617188 15.949219 17.414062 16.152344 17.164062 16.152344 C 16.917969 16.152344 16.714844 15.949219 16.714844 15.699219 C 16.714844 15.453125 16.917969 15.25 17.164062 15.25 C 17.414062 15.25 17.617188 15.453125 17.617188 15.699219 Z M 17.617188 15.699219 "/><path style=" stroke:none;fill-rule:nonzero;fill:rgb(83.92157%,68.627453%,2.745098%);fill-opacity:1;" d="M 17.488281 15.992188 C 17.328125 16.152344 17.035156 16.152344 16.875 15.992188 C 16.714844 15.828125 16.714844 15.539062 16.875 15.378906 "/></g></svg>