<svg xmlns="http://www.w3.org/2000/svg" xmlns:xlink="http://www.w3.org/1999/xlink" width="18px" height="20px" viewBox="0 0 18 20" version="1.1"><g id="surface1"><path style=" stroke:none;fill-rule:nonzero;fill:rgb(92.54902%,92.54902%,92.156863%);fill-opacity:1;" d="M 12.550781 17.011719 C 11.589844 16.554688 10.578125 16.359375 9.429688 17.226562 C 9.546875 16.789062 9.773438 15.304688 9.867188 14.804688 C 9.9375 14.625 10.4375 14.167969 10.613281 13.640625 C 10.789062 13.539062 11.796875 13.414062 12.527344 13.035156 C 12.667969 12.964844 12.714844 12.984375 12.710938 13.148438 C 12.710938 13.375 12.851562 16.066406 12.851562 16.066406 C 12.851562 16.066406 12.777344 16.710938 12.714844 16.960938 C 12.6875 17.0625 12.664062 17.0625 12.550781 17.011719 Z M 12.550781 17.011719 "/><path style=" stroke:none;fill-rule:nonzero;fill:rgb(0%,0%,1.960784%);fill-opacity:1;" d="M 9.429688 17.226562 C 10.578125 16.359375 11.589844 16.554688 12.550781 17.011719 C 12.664062 17.0625 12.6875 17.0625 12.714844 16.960938 C 12.777344 16.710938 12.851562 16.066406 12.851562 16.066406 C 12.851562 16.066406 12.710938 13.375 12.710938 13.148438 C 12.714844 12.984375 12.667969 12.964844 12.527344 13.035156 C 11.796875 13.414062 10.789062 13.539062 10.613281 13.640625 C 10.4375 14.167969 9.9375 14.625 9.867188 14.804688 C 9.773438 15.304688 9.546875 16.789062 9.429688 17.226562 Z M 4.8125 6.3125 C 4.855469 6.304688 4.925781 6.335938 4.933594 6.265625 C 4.9375 6.238281 4.886719 6.203125 4.855469 6.175781 C 4.203125 5.601562 3.4375 5.320312 2.570312 5.292969 C 2.484375 5.292969 2.402344 5.285156 2.316406 5.292969 C 1.464844 5.367188 0.777344 5.589844 0.855469 6.6875 C 0.867188 6.863281 0.921875 6.921875 1.09375 6.910156 C 1.53125 6.878906 1.957031 6.796875 2.390625 6.746094 C 3.203125 6.648438 4.003906 6.460938 4.8125 6.3125 Z M 17.871094 1.304688 C 18.171875 1.921875 17.914062 2.386719 17.1875 2.679688 C 16.03125 3.152344 14.878906 3.628906 13.703125 4.039062 C 13.617188 4.066406 13.558594 4.109375 13.59375 4.207031 C 13.949219 5.121094 14.292969 6.042969 14.660156 6.953125 C 14.746094 7.160156 14.738281 7.355469 14.726562 7.5625 C 14.671875 8.863281 14.578125 10.160156 14.578125 11.457031 C 14.578125 12.097656 13.589844 12.421875 13.527344 12.550781 C 13.464844 12.679688 13.628906 15.1875 13.675781 16.222656 C 13.679688 16.339844 13.710938 16.375 13.820312 16.398438 C 14.058594 16.449219 14.34375 16.460938 14.574219 16.507812 C 15.628906 16.71875 16.1875 17.46875 16.507812 18.421875 C 16.695312 18.96875 16.664062 19.5 16.332031 19.992188 L 1.316406 19.992188 C 0.953125 19.546875 0.914062 18.65625 1.183594 18.132812 C 1.472656 17.574219 1.808594 17.066406 2.382812 16.761719 C 2.503906 16.699219 2.433594 16.605469 2.394531 16.523438 C 2.207031 16.109375 2.015625 15.699219 1.933594 15.238281 C 1.875 14.894531 1.90625 14.226562 1.980469 13.902344 C 1.714844 13.914062 1.417969 13.921875 1.273438 13.855469 C 1.121094 13.785156 0.988281 13.679688 0.988281 13.507812 C 0.988281 13.328125 1.074219 13.164062 1.234375 13.09375 C 1.503906 12.976562 1.835938 12.945312 2.121094 12.925781 C 2.292969 12.914062 2.390625 12.878906 2.445312 12.722656 C 2.492188 12.574219 2.371094 12.53125 2.292969 12.457031 C 1.875 12.042969 1.777344 11.546875 2.015625 11.027344 C 2.214844 10.59375 2.695312 10.300781 3.152344 10.332031 C 3.761719 10.367188 4.242188 10.75 4.339844 11.269531 C 4.453125 11.863281 4.144531 12.339844 3.582031 12.605469 C 3.523438 12.632812 3.308594 12.695312 3.332031 12.816406 C 3.355469 12.9375 4.082031 12.800781 4.296875 12.921875 C 4.441406 13.003906 4.535156 13.15625 4.535156 13.320312 C 4.53125 13.507812 4.238281 13.648438 4.222656 13.652344 C 4.039062 13.699219 3.851562 13.734375 3.660156 13.757812 C 3.625 13.953125 3.9375 15.269531 4.539062 15.703125 C 4.578125 15.734375 4.609375 15.796875 4.648438 15.796875 C 4.714844 15.800781 4.691406 15.722656 4.703125 15.679688 C 4.925781 14.792969 5.097656 13.890625 5.382812 13.027344 C 5.566406 12.480469 5.921875 11.988281 6.203125 11.472656 C 6.347656 11.210938 6.5 10.953125 6.648438 10.695312 C 6.675781 10.644531 6.722656 10.585938 6.675781 10.53125 C 6.269531 10.046875 6.1875 9.414062 5.941406 8.855469 C 5.71875 8.347656 5.535156 7.824219 5.359375 7.296875 C 5.300781 7.121094 5.222656 7.070312 5.054688 7.101562 C 4.253906 7.242188 3.457031 7.386719 2.65625 7.515625 C 2.125 7.601562 1.597656 7.695312 1.0625 7.742188 C 0.496094 7.792969 0.199219 7.582031 0.0664062 7.027344 C -0.140625 6.175781 0.210938 5.207031 0.9375 4.835938 C 1.804688 4.394531 2.710938 4.328125 3.652344 4.621094 C 4.238281 4.796875 4.785156 5.074219 5.273438 5.441406 C 5.433594 5.5625 5.511719 5.5625 5.601562 5.367188 C 6.203125 4.082031 7.164062 3.171875 8.511719 2.703125 C 9.105469 2.492188 9.714844 2.316406 10.351562 2.285156 C 11.050781 2.25 11.707031 2.421875 12.3125 2.757812 C 12.527344 2.875 12.59375 2.816406 12.683594 2.625 C 13.128906 1.628906 13.765625 0.800781 14.785156 0.328125 C 16.144531 -0.300781 17.21875 -0.0273438 17.871094 1.304688 Z M 13.628906 3.203125 C 13.628906 3.203125 17.164062 1.804688 17.164062 1.835938 C 17.15625 1.417969 16.582031 0.777344 16.125 0.765625 C 15.667969 0.753906 15.359375 0.898438 15.003906 1.078125 C 13.816406 1.683594 13.207031 3.113281 13.289062 3.226562 C 13.359375 3.320312 13.628906 3.203125 13.628906 3.203125 Z M 15.503906 19.355469 C 15.753906 19.359375 15.714844 19.257812 15.707031 19.035156 C 15.652344 17.367188 14.164062 17.066406 13.511719 17.136719 C 13.367188 17.347656 13.285156 17.832031 13.386719 18.128906 C 13.5 18.464844 13.519531 18.800781 13.503906 19.15625 C 13.5 19.304688 13.585938 19.363281 13.75 19.355469 C 14.050781 19.34375 15.257812 19.355469 15.503906 19.355469 Z M 13.851562 8.828125 C 13.851562 8.691406 13.898438 7.402344 13.867188 7.203125 C 13.792969 6.996094 13.242188 5.457031 12.933594 4.65625 C 12.828125 4.382812 12.808594 4.054688 12.566406 3.851562 C 12.222656 3.5625 11.773438 3.300781 11.339844 3.179688 C 10.570312 2.964844 9.867188 3.097656 9.117188 3.289062 C 8.722656 3.390625 8.851562 3.574219 8.851562 3.574219 C 8.851562 3.574219 10.683594 7.914062 11.136719 9.023438 C 11.203125 9.1875 11.296875 9.101562 11.4375 9.054688 C 11.765625 8.945312 12.460938 8.84375 13.714844 8.960938 C 13.832031 8.972656 13.851562 8.925781 13.851562 8.828125 Z M 13.820312 9.371094 C 13.820312 9.339844 13.808594 9.308594 13.785156 9.285156 C 13.765625 9.265625 13.734375 9.25 13.703125 9.253906 C 13.464844 9.246094 12.800781 9.234375 12.578125 9.21875 C 11.546875 9.21875 11.167969 9.371094 8.753906 11.15625 C 8.609375 11.257812 8.671875 11.371094 8.792969 11.488281 C 9.222656 11.902344 9.644531 12.324219 10.058594 12.753906 C 10.160156 12.863281 10.304688 12.921875 10.457031 12.90625 C 11.558594 12.84375 12.488281 12.335938 13.390625 11.757812 C 13.65625 11.585938 13.792969 11.382812 13.785156 11.046875 C 13.773438 10.566406 13.820312 9.648438 13.820312 9.371094 Z M 12.707031 19.28125 C 12.710938 18.308594 12.457031 17.835938 12.011719 17.609375 C 11.6875 17.445312 11.324219 17.476562 10.976562 17.476562 C 10 17.484375 9.503906 18.308594 9.492188 19.039062 C 9.511719 19.160156 9.410156 19.355469 9.695312 19.355469 C 10.648438 19.351562 11.605469 19.355469 12.558594 19.351562 C 12.613281 19.351562 12.707031 19.390625 12.707031 19.28125 Z M 10.675781 9.4375 C 10.839844 9.328125 10.882812 9.257812 10.824219 9.128906 C 10.671875 8.777344 10.507812 8.433594 10.363281 8.078125 C 9.78125 6.660156 9.203125 5.242188 8.625 3.824219 C 8.566406 3.675781 8.542969 3.527344 8.308594 3.644531 C 7.496094 4.039062 6.832031 4.378906 5.890625 6.519531 C 5.90625 6.617188 6.960938 9.515625 7.167969 9.808594 C 7.390625 10.125 7.675781 10.414062 7.917969 10.722656 C 8.085938 10.933594 8.195312 11.132812 8.574219 10.851562 C 9.347656 10.269531 9.832031 10 10.675781 9.4375 Z M 9.773438 13.707031 C 9.796875 13.621094 9.753906 13.570312 9.695312 13.515625 C 9.363281 13.1875 9.035156 12.859375 8.710938 12.527344 C 8.632812 12.445312 8.554688 12.433594 8.46875 12.507812 C 8.160156 12.769531 7.832031 13.015625 7.582031 13.34375 C 7.5 13.453125 7.472656 13.558594 7.566406 13.660156 C 7.910156 14.054688 8.316406 14.339844 8.730469 14.371094 C 9.207031 14.378906 9.683594 14.03125 9.773438 13.707031 Z M 9.027344 17.355469 C 9.089844 17.082031 9.429688 15.355469 9.429688 15.019531 C 8.40625 15.378906 7.546875 14.84375 7.023438 14.261719 C 6.566406 13.75 6.503906 13.335938 6.910156 12.785156 C 7.0625 12.582031 7.300781 12.402344 7.488281 12.230469 C 7.96875 11.8125 8.015625 11.796875 7.476562 11.300781 C 7.355469 11.1875 7.234375 11.179688 7.160156 11.347656 C 6.800781 12.121094 6.222656 12.730469 6.023438 13.589844 C 5.785156 14.613281 5.558594 15.675781 5.296875 16.695312 C 5.261719 16.839844 5.335938 16.953125 5.410156 17.0625 C 5.445312 17.121094 5.515625 17.089844 5.566406 17.054688 C 6.085938 16.699219 6.574219 16.605469 7.167969 16.625 C 7.773438 16.640625 8.398438 16.945312 8.832031 17.375 C 8.898438 17.441406 8.988281 17.503906 9.027344 17.355469 Z M 8.625 19.34375 C 8.824219 19.210938 8.589844 18.390625 8.5 18.234375 C 8.046875 17.457031 7.285156 17.363281 6.378906 17.53125 C 5.792969 17.636719 5.484375 18.230469 5.457031 19.089844 C 5.460938 19.382812 5.421875 19.359375 5.660156 19.359375 C 6.648438 19.347656 7.636719 19.347656 8.625 19.34375 Z M 4.871094 17.980469 C 4.902344 17.910156 4.953125 17.804688 4.921875 17.738281 C 4.722656 17.28125 4.507812 17.089844 3.902344 17.140625 C 3.644531 17.15625 3.382812 17.195312 3.128906 17.253906 C 2.265625 17.457031 1.761719 18.476562 1.773438 19.15625 C 1.773438 19.257812 1.761719 19.367188 1.921875 19.34375 L 4.542969 19.34375 C 4.679688 19.371094 4.640625 19.265625 4.640625 19.203125 C 4.648438 18.78125 4.707031 18.371094 4.871094 17.980469 Z M 3.941406 16.363281 C 3.917969 16.269531 3.894531 16.160156 3.828125 16.097656 C 3.207031 15.523438 2.972656 14.574219 2.871094 13.820312 C 2.6875 13.96875 2.636719 14.667969 2.695312 14.957031 C 2.828125 15.660156 2.898438 15.707031 3.023438 16.085938 C 3.214844 16.570312 3.257812 16.34375 3.941406 16.363281 Z M 3.59375 11.496094 C 3.59375 11.210938 3.363281 10.984375 3.082031 10.984375 C 2.796875 10.984375 2.570312 11.210938 2.570312 11.496094 C 2.570312 11.777344 2.796875 12.007812 3.082031 12.007812 C 3.363281 12.007812 3.59375 11.777344 3.59375 11.496094 Z M 3.59375 11.496094 "/><path style=" stroke:none;fill-rule:nonzero;fill:rgb(92.54902%,92.54902%,92.156863%);fill-opacity:1;" d="M 17.164062 1.835938 C 17.164062 1.804688 13.628906 3.203125 13.628906 3.203125 C 13.628906 3.203125 13.359375 3.320312 13.289062 3.226562 C 13.207031 3.113281 13.816406 1.683594 15.003906 1.078125 C 15.359375 0.898438 15.667969 0.753906 16.125 0.765625 C 16.582031 0.777344 17.15625 1.417969 17.164062 1.835938 Z M 17.164062 1.835938 "/><path style=" stroke:none;fill-rule:nonzero;fill:rgb(92.54902%,92.54902%,92.156863%);fill-opacity:1;" d="M 15.707031 19.035156 C 15.714844 19.257812 15.753906 19.359375 15.503906 19.355469 C 15.257812 19.355469 14.050781 19.34375 13.75 19.355469 C 13.585938 19.363281 13.5 19.304688 13.503906 19.15625 C 13.519531 18.800781 13.5 18.464844 13.386719 18.128906 C 13.285156 17.832031 13.367188 17.347656 13.511719 17.136719 C 14.164062 17.066406 15.652344 17.367188 15.707031 19.035156 Z M 15.707031 19.035156 "/><path style=" stroke:none;fill-rule:nonzero;fill:rgb(92.54902%,92.54902%,92.156863%);fill-opacity:1;" d="M 13.867188 7.203125 C 13.898438 7.402344 13.851562 8.691406 13.851562 8.828125 C 13.851562 8.925781 13.832031 8.972656 13.714844 8.960938 C 12.460938 8.84375 11.765625 8.945312 11.4375 9.054688 C 11.296875 9.101562 11.203125 9.1875 11.136719 9.023438 C 10.683594 7.914062 8.851562 3.574219 8.851562 3.574219 C 8.851562 3.574219 8.722656 3.390625 9.117188 3.289062 C 9.867188 3.097656 10.570312 2.964844 11.339844 3.179688 C 11.773438 3.300781 12.222656 3.5625 12.566406 3.851562 C 12.808594 4.054688 12.828125 4.382812 12.933594 4.65625 C 13.242188 5.457031 13.792969 6.996094 13.867188 7.203125 Z M 13.277344 6.679688 C 13.277344 5.976562 12.707031 5.40625 12.003906 5.40625 C 11.300781 5.40625 10.734375 5.976562 10.734375 6.679688 C 10.734375 7.378906 11.300781 7.949219 12.003906 7.949219 C 12.707031 7.949219 13.277344 7.378906 13.277344 6.679688 Z M 9.960938 5 C 9.960938 4.894531 9.875 4.808594 9.769531 4.808594 C 9.660156 4.808594 9.574219 4.894531 9.574219 5 C 9.574219 5.109375 9.660156 5.195312 9.769531 5.195312 C 9.875 5.195312 9.960938 5.109375 9.960938 5 Z M 9.734375 4.421875 C 9.734375 4.316406 9.648438 4.230469 9.539062 4.230469 C 9.433594 4.230469 9.347656 4.316406 9.347656 4.421875 C 9.347656 4.527344 9.433594 4.617188 9.539062 4.617188 C 9.648438 4.617188 9.734375 4.527344 9.734375 4.421875 Z M 9.425781 3.800781 C 9.425781 3.695312 9.339844 3.609375 9.230469 3.609375 C 9.125 3.609375 9.039062 3.695312 9.039062 3.800781 C 9.039062 3.910156 9.125 3.996094 9.234375 3.996094 C 9.285156 3.996094 9.332031 3.972656 9.367188 3.9375 C 9.40625 3.902344 9.425781 3.851562 9.425781 3.800781 Z M 9.425781 3.800781 "/><path style=" stroke:none;fill-rule:nonzero;fill:rgb(92.54902%,92.54902%,92.156863%);fill-opacity:1;" d="M 13.703125 9.253906 C 13.734375 9.25 13.765625 9.265625 13.785156 9.285156 C 13.808594 9.308594 13.820312 9.339844 13.820312 9.371094 C 13.820312 9.648438 13.773438 10.566406 13.785156 11.046875 C 13.792969 11.382812 13.65625 11.585938 13.390625 11.757812 C 12.488281 12.335938 11.558594 12.84375 10.457031 12.90625 C 10.304688 12.921875 10.160156 12.863281 10.058594 12.753906 C 9.644531 12.324219 9.21875 11.902344 8.792969 11.488281 C 8.671875 11.371094 8.609375 11.257812 8.753906 11.15625 C 11.167969 9.371094 11.546875 9.21875 12.578125 9.21875 C 12.800781 9.234375 13.464844 9.246094 13.703125 9.253906 Z M 13.460938 9.566406 C 13.460938 9.457031 13.375 9.371094 13.269531 9.371094 C 13.164062 9.371094 13.074219 9.460938 13.074219 9.566406 C 13.074219 9.671875 13.164062 9.757812 13.269531 9.757812 C 13.320312 9.757812 13.371094 9.738281 13.40625 9.703125 C 13.441406 9.664062 13.460938 9.617188 13.460938 9.566406 Z M 12.847656 10.640625 C 12.882812 10.554688 12.957031 10.40625 12.890625 10.324219 C 12.824219 10.246094 12.648438 10.316406 12.589844 10.335938 C 11.746094 10.632812 11.007812 11.042969 10.199219 11.417969 C 10.167969 11.433594 10.144531 11.464844 10.144531 11.503906 C 10.140625 11.539062 10.15625 11.574219 10.1875 11.59375 C 10.6875 12.015625 11.519531 11.863281 11.710938 11.78125 C 12.238281 11.550781 12.636719 11.183594 12.847656 10.640625 Z M 12.847656 9.566406 C 12.847656 9.457031 12.761719 9.371094 12.65625 9.371094 C 12.550781 9.371094 12.464844 9.457031 12.460938 9.566406 C 12.460938 9.671875 12.550781 9.757812 12.65625 9.757812 C 12.761719 9.757812 12.847656 9.671875 12.847656 9.566406 Z M 12.847656 9.566406 "/><path style=" stroke:none;fill-rule:nonzero;fill:rgb(0%,0%,1.960784%);fill-opacity:1;" d="M 13.269531 9.371094 C 13.375 9.371094 13.460938 9.457031 13.460938 9.566406 C 13.460938 9.671875 13.375 9.757812 13.269531 9.757812 C 13.164062 9.757812 13.074219 9.671875 13.074219 9.566406 C 13.074219 9.457031 13.164062 9.371094 13.269531 9.371094 Z M 13.269531 9.371094 "/><path style=" stroke:none;fill-rule:nonzero;fill:rgb(0%,0%,1.960784%);fill-opacity:1;" d="M 12.003906 5.40625 C 12.707031 5.40625 13.277344 5.976562 13.277344 6.675781 C 13.277344 7.378906 12.707031 7.949219 12.003906 7.949219 C 11.304688 7.949219 10.734375 7.378906 10.734375 6.679688 C 10.734375 5.976562 11.300781 5.40625 12.003906 5.40625 Z M 12.503906 6.679688 C 12.503906 6.402344 12.28125 6.179688 12.003906 6.179688 C 11.730469 6.179688 11.507812 6.402344 11.507812 6.679688 C 11.507812 6.953125 11.730469 7.175781 12.003906 7.175781 C 12.28125 7.175781 12.503906 6.953125 12.503906 6.679688 Z M 12.503906 6.679688 "/><path style=" stroke:none;fill-rule:nonzero;fill:rgb(0%,0%,1.960784%);fill-opacity:1;" d="M 12.890625 10.324219 C 12.957031 10.40625 12.882812 10.554688 12.847656 10.640625 C 12.636719 11.183594 12.238281 11.550781 11.710938 11.78125 C 11.519531 11.863281 10.6875 12.015625 10.1875 11.59375 C 10.15625 11.574219 10.140625 11.539062 10.144531 11.503906 C 10.144531 11.464844 10.167969 11.433594 10.199219 11.417969 C 11.007812 11.042969 11.746094 10.632812 12.589844 10.335938 C 12.648438 10.316406 12.824219 10.246094 12.890625 10.324219 Z M 12.890625 10.324219 "/><path style=" stroke:none;fill-rule:nonzero;fill:rgb(0%,0%,1.960784%);fill-opacity:1;" d="M 12.65625 9.371094 C 12.761719 9.371094 12.847656 9.457031 12.847656 9.566406 C 12.847656 9.671875 12.761719 9.757812 12.65625 9.757812 C 12.550781 9.757812 12.460938 9.671875 12.460938 9.566406 C 12.464844 9.457031 12.550781 9.371094 12.65625 9.371094 Z M 12.65625 9.371094 "/><path style=" stroke:none;fill-rule:nonzero;fill:rgb(92.54902%,92.54902%,92.156863%);fill-opacity:1;" d="M 12.011719 17.609375 C 12.457031 17.835938 12.710938 18.308594 12.707031 19.28125 C 12.707031 19.390625 12.613281 19.351562 12.558594 19.351562 C 11.605469 19.355469 10.648438 19.351562 9.695312 19.355469 C 9.410156 19.355469 9.511719 19.160156 9.492188 19.039062 C 9.503906 18.308594 10 17.484375 10.976562 17.476562 C 11.324219 17.476562 11.6875 17.445312 12.011719 17.609375 Z M 12.011719 17.609375 "/><path style=" stroke:none;fill-rule:nonzero;fill:rgb(63.137257%,85.882354%,89.411765%);fill-opacity:1;" d="M 12.503906 6.679688 C 12.503906 6.953125 12.28125 7.175781 12.003906 7.175781 C 11.730469 7.175781 11.507812 6.953125 11.507812 6.679688 C 11.507812 6.402344 11.730469 6.179688 12.003906 6.179688 C 12.28125 6.179688 12.503906 6.402344 12.503906 6.679688 Z M 12.503906 6.679688 "/><path style=" stroke:none;fill-rule:nonzero;fill:rgb(92.54902%,92.54902%,92.156863%);fill-opacity:1;" d="M 10.824219 9.128906 C 10.882812 9.257812 10.839844 9.328125 10.675781 9.4375 C 9.832031 10 9.347656 10.269531 8.574219 10.851562 C 8.195312 11.132812 8.085938 10.933594 7.917969 10.722656 C 7.675781 10.414062 7.390625 10.125 7.167969 9.808594 C 6.960938 9.515625 5.90625 6.617188 5.890625 6.519531 C 6.832031 4.378906 7.496094 4.039062 8.308594 3.644531 C 8.542969 3.527344 8.566406 3.675781 8.625 3.824219 C 9.203125 5.242188 9.78125 6.660156 10.363281 8.078125 C 10.507812 8.433594 10.671875 8.777344 10.824219 9.128906 Z M 9.375 8.050781 C 9.375 7.347656 8.804688 6.78125 8.105469 6.78125 C 7.402344 6.78125 6.832031 7.347656 6.832031 8.050781 C 6.832031 8.75 7.402344 9.320312 8.105469 9.320312 C 8.804688 9.320312 9.375 8.75 9.375 8.050781 Z M 9.375 8.050781 "/><path style=" stroke:none;fill-rule:nonzero;fill:rgb(0%,0%,1.960784%);fill-opacity:1;" d="M 9.769531 4.808594 C 9.875 4.808594 9.960938 4.894531 9.960938 5 C 9.960938 5.109375 9.875 5.195312 9.769531 5.195312 C 9.660156 5.195312 9.574219 5.109375 9.574219 5 C 9.574219 4.894531 9.660156 4.808594 9.769531 4.808594 Z M 9.769531 4.808594 "/><path style=" stroke:none;fill-rule:nonzero;fill:rgb(92.941177%,19.607843%,17.254902%);fill-opacity:1;" d="M 9.695312 13.515625 C 9.753906 13.570312 9.796875 13.621094 9.773438 13.707031 C 9.683594 14.03125 9.207031 14.378906 8.730469 14.371094 C 8.316406 14.339844 7.910156 14.054688 7.566406 13.660156 C 7.472656 13.558594 7.5 13.453125 7.582031 13.34375 C 7.832031 13.015625 8.160156 12.769531 8.46875 12.507812 C 8.554688 12.433594 8.632812 12.445312 8.710938 12.527344 C 9.035156 12.859375 9.363281 13.1875 9.695312 13.515625 Z M 9.695312 13.515625 "/><path style=" stroke:none;fill-rule:nonzero;fill:rgb(0%,0%,1.960784%);fill-opacity:1;" d="M 9.539062 4.230469 C 9.648438 4.230469 9.734375 4.316406 9.734375 4.421875 C 9.734375 4.527344 9.648438 4.617188 9.542969 4.617188 C 9.433594 4.617188 9.347656 4.527344 9.347656 4.421875 C 9.347656 4.371094 9.367188 4.320312 9.402344 4.285156 C 9.441406 4.25 9.488281 4.230469 9.539062 4.230469 Z M 9.539062 4.230469 "/><path style=" stroke:none;fill-rule:nonzero;fill:rgb(0%,0%,1.960784%);fill-opacity:1;" d="M 9.234375 3.609375 C 9.339844 3.609375 9.425781 3.695312 9.425781 3.800781 C 9.425781 3.910156 9.339844 3.996094 9.234375 3.996094 C 9.125 3.996094 9.039062 3.90625 9.039062 3.800781 C 9.039062 3.695312 9.125 3.609375 9.234375 3.609375 Z M 9.234375 3.609375 "/><path style=" stroke:none;fill-rule:nonzero;fill:rgb(0%,0%,1.960784%);fill-opacity:1;" d="M 9.117188 15.238281 C 9.226562 15.238281 9.3125 15.324219 9.3125 15.429688 C 9.3125 15.535156 9.226562 15.621094 9.117188 15.621094 C 9.011719 15.621094 8.925781 15.535156 8.925781 15.429688 C 8.925781 15.324219 9.011719 15.238281 9.117188 15.238281 Z M 9.117188 15.238281 "/><path style=" stroke:none;fill-rule:nonzero;fill:rgb(92.54902%,92.54902%,92.156863%);fill-opacity:1;" d="M 9.429688 15.019531 C 9.429688 15.355469 9.089844 17.082031 9.027344 17.355469 C 8.988281 17.503906 8.898438 17.441406 8.832031 17.375 C 8.398438 16.945312 7.773438 16.640625 7.167969 16.625 C 6.574219 16.605469 6.085938 16.699219 5.566406 17.054688 C 5.515625 17.089844 5.445312 17.121094 5.410156 17.0625 C 5.335938 16.953125 5.261719 16.839844 5.296875 16.695312 C 5.558594 15.675781 5.785156 14.613281 6.023438 13.589844 C 6.222656 12.730469 6.800781 12.121094 7.160156 11.347656 C 7.234375 11.179688 7.355469 11.1875 7.476562 11.300781 C 8.015625 11.796875 7.96875 11.8125 7.488281 12.230469 C 7.300781 12.402344 7.0625 12.582031 6.910156 12.785156 C 6.503906 13.335938 6.566406 13.75 7.023438 14.261719 C 7.546875 14.84375 8.40625 15.378906 9.429688 15.019531 Z M 9.3125 15.429688 C 9.3125 15.324219 9.226562 15.238281 9.117188 15.238281 C 9.011719 15.238281 8.925781 15.324219 8.925781 15.429688 C 8.925781 15.535156 9.011719 15.621094 9.117188 15.621094 C 9.226562 15.621094 9.3125 15.535156 9.3125 15.429688 Z M 9.191406 16.058594 C 9.191406 15.953125 9.105469 15.867188 9 15.867188 C 8.894531 15.867188 8.808594 15.953125 8.808594 16.058594 C 8.808594 16.164062 8.894531 16.25 9 16.253906 C 9.105469 16.253906 9.191406 16.164062 9.191406 16.058594 Z M 9 16.746094 C 9 16.640625 8.914062 16.554688 8.808594 16.554688 C 8.699219 16.554688 8.613281 16.640625 8.613281 16.746094 C 8.613281 16.851562 8.699219 16.941406 8.808594 16.941406 C 8.859375 16.941406 8.90625 16.917969 8.941406 16.882812 C 8.980469 16.847656 9 16.796875 9 16.746094 Z M 9 16.746094 "/><path style=" stroke:none;fill-rule:nonzero;fill:rgb(0%,0%,1.960784%);fill-opacity:1;" d="M 9 15.867188 C 9.105469 15.867188 9.191406 15.953125 9.191406 16.058594 C 9.191406 16.164062 9.105469 16.253906 9 16.253906 C 8.894531 16.253906 8.804688 16.164062 8.808594 16.058594 C 8.808594 15.953125 8.894531 15.867188 9 15.867188 Z M 9 15.867188 "/><path style=" stroke:none;fill-rule:nonzero;fill:rgb(0%,0%,1.960784%);fill-opacity:1;" d="M 8.105469 6.78125 C 8.804688 6.78125 9.375 7.347656 9.375 8.050781 C 9.375 8.75 8.804688 9.320312 8.105469 9.320312 C 7.402344 9.320312 6.832031 8.753906 6.832031 8.050781 C 6.832031 7.347656 7.402344 6.78125 8.105469 6.78125 Z M 8.601562 8.050781 C 8.601562 7.777344 8.378906 7.550781 8.105469 7.550781 C 7.828125 7.550781 7.605469 7.777344 7.605469 8.050781 C 7.605469 8.324219 7.828125 8.546875 8.105469 8.546875 C 8.378906 8.546875 8.601562 8.324219 8.601562 8.050781 Z M 8.601562 8.050781 "/><path style=" stroke:none;fill-rule:nonzero;fill:rgb(0%,0%,1.960784%);fill-opacity:1;" d="M 9 16.746094 C 9 16.851562 8.914062 16.941406 8.808594 16.941406 C 8.699219 16.941406 8.613281 16.851562 8.613281 16.746094 C 8.613281 16.640625 8.699219 16.554688 8.808594 16.554688 C 8.914062 16.554688 9 16.640625 9 16.746094 Z M 9 16.746094 "/><path style=" stroke:none;fill-rule:nonzero;fill:rgb(92.54902%,92.54902%,92.156863%);fill-opacity:1;" d="M 8.5 18.234375 C 8.589844 18.390625 8.824219 19.210938 8.625 19.34375 C 7.636719 19.347656 6.648438 19.347656 5.660156 19.359375 C 5.421875 19.359375 5.460938 19.382812 5.457031 19.089844 C 5.484375 18.230469 5.792969 17.636719 6.378906 17.53125 C 7.285156 17.363281 8.046875 17.457031 8.5 18.234375 Z M 8.5 18.234375 "/><path style=" stroke:none;fill-rule:nonzero;fill:rgb(97.254902%,93.333334%,47.058824%);fill-opacity:1;" d="M 8.601562 8.050781 C 8.601562 8.324219 8.378906 8.546875 8.105469 8.546875 C 7.828125 8.546875 7.605469 8.324219 7.605469 8.050781 C 7.605469 7.777344 7.828125 7.550781 8.105469 7.550781 C 8.378906 7.550781 8.601562 7.777344 8.601562 8.050781 Z M 8.601562 8.050781 "/><path style=" stroke:none;fill-rule:nonzero;fill:rgb(92.54902%,92.54902%,92.156863%);fill-opacity:1;" d="M 4.855469 6.175781 C 4.886719 6.203125 4.9375 6.238281 4.933594 6.265625 C 4.925781 6.335938 4.855469 6.304688 4.8125 6.3125 C 4.003906 6.460938 3.203125 6.648438 2.390625 6.746094 C 1.957031 6.796875 1.53125 6.878906 1.09375 6.910156 C 0.921875 6.921875 0.867188 6.863281 0.855469 6.6875 C 0.777344 5.589844 1.464844 5.367188 2.316406 5.292969 C 2.402344 5.285156 2.484375 5.292969 2.570312 5.292969 C 3.4375 5.320312 4.203125 5.601562 4.855469 6.175781 Z M 4.855469 6.175781 "/><path style=" stroke:none;fill-rule:nonzero;fill:rgb(92.54902%,92.54902%,92.156863%);fill-opacity:1;" d="M 4.921875 17.738281 C 4.953125 17.804688 4.902344 17.910156 4.871094 17.980469 C 4.707031 18.371094 4.648438 18.78125 4.640625 19.203125 C 4.640625 19.265625 4.679688 19.371094 4.542969 19.34375 L 1.921875 19.34375 C 1.761719 19.367188 1.773438 19.257812 1.773438 19.15625 C 1.761719 18.476562 2.265625 17.457031 3.128906 17.253906 C 3.382812 17.195312 3.644531 17.15625 3.902344 17.140625 C 4.507812 17.089844 4.722656 17.28125 4.921875 17.738281 Z M 4.921875 17.738281 "/><path style=" stroke:none;fill-rule:nonzero;fill:rgb(92.54902%,92.54902%,92.156863%);fill-opacity:1;" d="M 3.828125 16.097656 C 3.894531 16.160156 3.917969 16.269531 3.941406 16.363281 C 3.257812 16.34375 3.214844 16.570312 3.023438 16.085938 C 2.898438 15.707031 2.828125 15.660156 2.695312 14.957031 C 2.636719 14.667969 2.6875 13.96875 2.871094 13.820312 C 2.972656 14.574219 3.207031 15.523438 3.828125 16.097656 Z M 3.828125 16.097656 "/><path style=" stroke:none;fill-rule:nonzero;fill:rgb(51.764709%,76.862746%,32.941177%);fill-opacity:1;" d="M 3.082031 10.984375 C 3.363281 10.984375 3.59375 11.210938 3.59375 11.496094 C 3.59375 11.777344 3.363281 12.007812 3.082031 12.007812 C 2.796875 12.007812 2.570312 11.777344 2.570312 11.496094 C 2.570312 11.210938 2.796875 10.984375 3.082031 10.984375 Z M 3.082031 10.984375 "/><path style="fill:none;stroke-width:0.25;stroke-linecap:butt;stroke-linejoin:miter;stroke:rgb(0%,0%,0%);stroke-opacity:1;stroke-miterlimit:10;" d="M 252.12606 345.303324 C 243.907361 344.682524 235.843732 339.01772 229.020661 331.180115 C 227.159824 329.162514 227.702568 327.067312 229.330801 324.894511 C 234.293034 318.376107 240.805965 313.487304 246.931222 308.2881 C 248.636989 306.813699 250.187687 307.0465 251.738385 308.676101 C 258.173781 315.272105 264.686713 321.790509 271.277179 328.308913 C 272.440202 329.395314 273.293086 330.404115 272.827877 332.111316 C 271.044574 338.55212 261.585317 345.458524 252.12606 345.303324 Z M 252.12606 345.303324 " transform="matrix(0.0503805,0,0,0.0503382,-3.971779,-3.010868)"/><path style="fill:none;stroke-width:0.25;stroke-linecap:butt;stroke-linejoin:miter;stroke:rgb(0%,0%,0%);stroke-opacity:1;stroke-miterlimit:10;" d="M 248.1888 132.696085 C 248.1888 138.128089 243.769311 142.551292 238.264333 142.551292 C 232.836891 142.551292 228.417402 138.128089 228.417402 132.696085 C 228.417402 127.186482 232.836891 122.763279 238.264333 122.763279 C 243.769311 122.763279 248.1888 127.186482 248.1888 132.696085 Z M 248.1888 132.696085 " transform="matrix(0.0503805,0,0,0.0503382,0.0000200397,0)"/><path style="fill:none;stroke-width:0.25;stroke-linecap:butt;stroke-linejoin:miter;stroke:rgb(0%,0%,0%);stroke-opacity:1;stroke-miterlimit:10;" d="M 317.100301 167.211209 C 331.056582 167.211209 342.376677 178.540817 342.376677 192.431226 C 342.376677 206.399235 331.056582 217.728842 317.100301 217.728842 C 303.221555 217.728842 291.901461 206.399235 291.901461 192.508826 C 291.901461 178.540817 303.14402 167.211209 317.100301 167.211209 Z M 317.100301 167.211209 " transform="matrix(0.0503805,0,0,0.0503382,-3.971779,-3.010868)"/><path style="fill:none;stroke-width:0.25;stroke-linecap:round;stroke-linejoin:round;stroke:rgb(0%,0%,0%);stroke-opacity:1;stroke-miterlimit:4;" d="M 239.720477 194.526427 C 253.599223 194.526427 264.919317 205.778434 264.919317 219.746443 C 264.919317 233.636852 253.599223 244.96646 239.720477 244.96646 C 225.764196 244.96646 214.444101 233.714452 214.444101 219.746443 C 214.444101 205.778434 225.764196 194.526427 239.720477 194.526427 Z M 239.720477 194.526427 " transform="matrix(0.0503805,0,0,0.0503382,-3.971779,-3.010868)"/><path style="fill:none;stroke-width:0.25;stroke-linecap:round;stroke-linejoin:round;stroke:rgb(0%,0%,0%);stroke-opacity:1;stroke-miterlimit:4;" d="M 170.73144 159.933703 C 170.73144 165.365706 166.311951 169.788909 160.884509 169.788909 C 155.379531 169.788909 150.960042 165.365706 150.960042 159.933703 C 150.960042 154.501699 155.379531 150.000897 160.884509 150.000897 C 166.311951 150.000897 170.73144 154.501699 170.73144 159.933703 Z M 170.73144 159.933703 " transform="matrix(0.0503805,0,0,0.0503382,0.0000200397,0)"/><path style="fill:none;stroke-width:0.25;stroke-linecap:butt;stroke-linejoin:miter;stroke:rgb(0%,0%,0%);stroke-opacity:1;stroke-miterlimit:10;" d="M 140.010602 278.024081 C 145.593115 278.024081 150.167673 282.524884 150.167673 288.189687 C 150.167673 293.776891 145.593115 298.355294 140.010602 298.355294 C 134.350555 298.355294 129.853531 293.776891 129.853531 288.189687 C 129.853531 282.524884 134.350555 278.024081 140.010602 278.024081 Z M 140.010602 278.024081 " transform="matrix(0.0503805,0,0,0.0503382,-3.971779,-3.010868)"/><path style="fill:none;stroke-width:0.25;stroke-linecap:butt;stroke-linejoin:miter;stroke:rgb(0%,0%,0%);stroke-opacity:1;stroke-miterlimit:10;" d="M 263.678759 366.332938 C 263.678759 368.428139 261.972991 370.13534 259.802014 370.13534 C 257.708572 370.13534 256.002804 368.428139 256.002804 366.332938 C 256.002804 364.237736 257.708572 362.530535 259.802014 362.530535 C 261.972991 362.530535 263.678759 364.237736 263.678759 366.332938 Z M 263.678759 366.332938 " transform="matrix(0.0503805,0,0,0.0503382,-3.971779,-3.010868)"/><path style="fill:none;stroke-width:0.25;stroke-linecap:butt;stroke-linejoin:miter;stroke:rgb(0%,0%,0%);stroke-opacity:1;stroke-miterlimit:10;" d="M 333.847839 249.855263 C 333.847839 251.950464 332.142071 253.657665 330.048629 253.657665 C 327.955187 253.657665 326.249419 251.950464 326.171884 249.855263 C 326.171884 247.760061 327.955187 245.97526 330.048629 245.97526 C 332.142071 245.97526 333.847839 247.682461 333.847839 249.855263 Z M 333.847839 249.855263 " transform="matrix(0.0503805,0,0,0.0503382,-3.971779,-3.010868)"/><path style="fill:none;stroke-width:0.25;stroke-linecap:butt;stroke-linejoin:miter;stroke:rgb(0%,0%,0%);stroke-opacity:1;stroke-miterlimit:10;" d="M 265.927271 135.317589 C 265.927271 137.41279 264.221503 139.197591 262.128061 139.197591 C 259.957084 139.197591 258.251316 137.41279 258.251316 135.317589 C 258.251316 133.222388 259.957084 131.515187 262.128061 131.515187 C 264.221503 131.515187 265.927271 133.222388 265.927271 135.317589 Z M 265.927271 135.317589 " transform="matrix(0.0503805,0,0,0.0503382,-3.971779,-3.010868)"/><path style="fill:none;stroke-width:0.25;stroke-linecap:butt;stroke-linejoin:miter;stroke:rgb(0%,0%,0%);stroke-opacity:1;stroke-miterlimit:10;" d="M 272.052528 147.655997 C 272.052528 149.751198 270.34676 151.458399 268.175783 151.458399 C 266.082341 151.458399 264.376573 149.751198 264.376573 147.655997 C 264.376573 145.560796 266.082341 143.853594 268.175783 143.853594 C 269.261271 143.853594 270.19169 144.241595 270.889504 144.939995 C 271.664853 145.638396 272.052528 146.647196 272.052528 147.655997 Z M 272.052528 147.655997 " transform="matrix(0.0503805,0,0,0.0503382,-3.971779,-3.010868)"/><path style="fill:none;stroke-width:0.25;stroke-linecap:butt;stroke-linejoin:miter;stroke:rgb(0%,0%,0%);stroke-opacity:1;stroke-miterlimit:10;" d="M 276.549551 159.140804 C 276.549551 161.313606 274.843784 163.020807 272.672807 163.020807 C 270.579365 163.020807 268.873597 161.313606 268.873597 159.140804 C 268.873597 157.045603 270.579365 155.338402 272.750342 155.338402 C 274.843784 155.338402 276.549551 157.045603 276.549551 159.140804 Z M 276.549551 159.140804 " transform="matrix(0.0503805,0,0,0.0503382,-3.971779,-3.010868)"/><path style="fill:none;stroke-width:0.25;stroke-linecap:butt;stroke-linejoin:miter;stroke:rgb(0%,0%,0%);stroke-opacity:1;stroke-miterlimit:10;" d="M 346.020817 249.855263 C 346.020817 251.950464 344.315049 253.657665 342.221607 253.657665 C 340.128165 253.657665 338.344862 251.950464 338.344862 249.855263 C 338.344862 247.682461 340.128165 245.97526 342.221607 245.97526 C 344.315049 245.97526 346.020817 247.682461 346.020817 249.855263 Z M 346.020817 249.855263 " transform="matrix(0.0503805,0,0,0.0503382,-3.971779,-3.010868)"/><path style="fill:none;stroke-width:0.25;stroke-linecap:butt;stroke-linejoin:miter;stroke:rgb(0%,0%,0%);stroke-opacity:1;stroke-miterlimit:10;" d="M 261.275177 378.826546 C 261.275177 380.921747 259.56941 382.628948 257.475967 382.706548 C 255.382525 382.706548 253.676758 380.921747 253.676758 378.826546 C 253.599223 376.731344 255.382525 375.024143 257.475967 375.024143 C 259.56941 375.024143 261.275177 376.731344 261.275177 378.826546 Z M 261.275177 378.826546 " transform="matrix(0.0503805,0,0,0.0503382,-3.971779,-3.010868)"/><path style="fill:none;stroke-width:0.25;stroke-linecap:butt;stroke-linejoin:miter;stroke:rgb(0%,0%,0%);stroke-opacity:1;stroke-miterlimit:10;" d="M 178.639999 332.671414 C 178.639999 334.766616 176.934232 336.551417 174.84079 336.551417 C 172.669813 336.551417 170.964045 334.766616 170.964045 332.671414 C 170.964045 330.576213 172.669813 328.869012 174.84079 328.869012 C 176.934232 328.869012 178.639999 330.576213 178.639999 332.671414 Z M 178.639999 332.671414 " transform="matrix(0.0503805,0,0,0.0503382,0.0000200397,0)"/><path style="fill:none;stroke-width:0.25;stroke-linecap:round;stroke-linejoin:round;stroke:rgb(0%,0%,0%);stroke-opacity:1;stroke-miterlimit:4;" d="M 334.700722 264.909672 C 333.382629 263.357671 329.893559 264.754472 328.730536 265.142473 C 311.982998 271.040076 297.328903 279.188082 281.27918 286.637686 C 280.658901 286.948087 280.193692 287.568887 280.193692 288.344887 C 280.116157 289.043288 280.426296 289.741688 281.046575 290.129689 C 290.971042 298.510494 307.485974 295.484092 311.285184 293.854491 C 321.752395 289.276088 329.660954 281.981683 333.847839 271.195276 C 334.545653 269.488075 336.018816 266.539273 334.700722 264.909672 Z M 334.700722 264.909672 " transform="matrix(0.0503805,0,0,0.0503382,-3.971779,-3.010868)"/><path style="fill:none;stroke-width:0.25;stroke-linecap:round;stroke-linejoin:round;stroke:rgb(0%,0%,0%);stroke-opacity:1;stroke-miterlimit:4;" d="M 433.557713 85.731157 C 420.609386 59.26954 399.28729 53.837536 372.305146 66.331145 C 352.068539 75.720751 339.430351 92.171961 330.591373 111.959974 C 328.80807 115.762376 327.489977 116.926377 323.225558 114.598376 C 311.207649 107.924771 298.181787 104.510369 284.303041 105.20877 C 271.664853 105.82957 259.56941 109.321572 247.784106 113.511975 C 221.034567 122.823981 201.960983 140.904793 190.020609 166.435209 C 188.237307 170.315211 186.686609 170.315211 183.507678 167.90961 C 173.815816 160.615205 162.960931 155.105602 151.330697 151.613599 C 132.644787 145.793596 114.656692 147.112797 97.443945 155.881602 C 83.022455 163.253607 76.044314 182.498419 80.153663 199.41523 C 82.78985 210.434437 88.682502 214.62484 99.925062 213.616039 C 110.547342 212.684839 121.014553 210.822438 131.559299 209.115236 C 147.453952 206.554435 163.27107 203.683233 179.165724 200.889631 C 182.499724 200.268831 184.050422 201.277631 185.213446 204.769634 C 188.702516 215.24564 192.346656 225.644047 196.766145 235.732054 C 201.650843 246.828861 203.279076 259.400069 211.342705 269.022475 C 212.273124 270.108876 211.342705 271.272877 210.799961 272.281677 C 207.853635 277.40328 204.829774 282.524884 201.960983 287.724087 C 196.37847 297.967294 189.322795 307.7449 185.678655 318.608907 C 180.018608 335.758518 176.607072 353.68413 172.187583 371.299341 C 171.954979 372.152941 172.420188 373.704942 171.102095 373.627342 C 170.326746 373.627342 169.706467 372.385742 168.931118 371.764941 C 156.990744 363.151336 150.787952 337.000119 151.485766 333.120116 C 155.284976 332.654516 159.006651 331.956116 162.650791 331.024915 C 162.960931 330.947315 168.776048 328.153713 168.853583 324.428911 C 168.853583 321.169709 166.992745 318.143307 164.123954 316.513706 C 159.859535 314.108104 145.438045 316.824106 144.972835 314.418504 C 144.507626 312.012903 148.772045 310.771302 149.935069 310.228102 C 161.100093 304.951298 167.22535 295.484092 164.976838 283.688884 C 163.038466 273.368078 153.501674 265.763273 141.40623 265.064873 C 132.334648 264.444072 122.797855 270.264076 118.843576 278.877681 C 114.113947 289.198488 116.05232 299.053694 124.348553 307.2793 C 125.899251 308.753701 128.302833 309.607301 127.372414 312.556103 C 126.286926 315.660105 124.348553 316.358506 120.937018 316.591306 C 115.276971 316.979306 108.686505 317.600106 103.336597 319.928108 C 100.157666 321.324909 98.451899 324.584111 98.451899 328.153713 C 98.451899 331.568115 101.088085 333.663317 104.111946 335.060118 C 106.980737 336.379318 112.873389 336.224118 118.145762 335.991318 C 116.672599 342.432122 116.05232 355.701731 117.215343 362.530535 C 118.843576 371.687341 122.642786 379.835346 126.364461 388.060952 C 127.13981 389.690553 128.535438 391.552954 126.131856 392.794555 C 114.734226 398.847359 108.066226 408.935365 102.328643 420.032172 C 96.978736 430.430579 97.754085 448.12339 104.96483 456.969796 L 403.008965 456.969796 C 409.599431 447.19219 410.21971 436.638583 406.498035 425.774576 C 400.140173 406.840164 389.052684 391.940954 368.118262 387.750552 C 363.543703 386.819351 357.883656 386.586551 353.154027 385.57775 C 350.98305 385.11215 350.362771 384.413749 350.285236 382.085748 C 349.354818 361.521735 346.098352 311.702503 347.33891 309.141701 C 348.579469 306.580899 368.195797 300.140095 368.195797 287.413687 C 368.195797 261.65047 370.056634 235.887254 371.142123 210.046437 C 371.374728 205.933634 371.529797 202.053632 369.82403 197.940829 C 362.53575 179.860018 355.712679 161.546406 348.657003 143.387994 C 347.959189 141.447993 349.122213 140.594392 350.827981 140.051192 C 374.165984 131.903187 397.038778 122.435981 419.989106 113.046375 C 434.410597 107.226371 439.5279 97.991965 433.557713 85.731157 Z M 433.557713 85.731157 " transform="matrix(0.0503805,0,0,0.0503382,-3.971779,-3.010868)"/><path style="fill:none;stroke-width:0.25;stroke-linecap:round;stroke-linejoin:round;stroke:rgb(0%,0%,0%);stroke-opacity:1;stroke-miterlimit:4;" d="M 174.35856 185.214421 C 158.308837 188.163223 142.414184 191.888025 126.286926 193.828027 C 117.680552 194.836827 109.229249 196.466428 100.545341 197.087229 C 97.133805 197.320029 96.048317 196.156028 95.815712 192.664026 C 94.265014 170.858412 107.911156 166.435209 124.813763 164.960808 C 126.51953 164.805608 128.147763 164.960808 129.853531 164.960808 C 147.066277 165.504008 162.263117 171.091212 175.211444 182.498419 C 175.831723 183.04162 176.839677 183.74002 176.762142 184.28322 C 176.607072 185.680021 175.211444 185.059221 174.35856 185.214421 Z M 174.35856 185.214421 " transform="matrix(0.0503805,0,0,0.0503382,-3.971779,-3.010868)"/><path style="fill:none;stroke-width:0.25;stroke-linecap:round;stroke-linejoin:round;stroke:rgb(0%,0%,0%);stroke-opacity:1;stroke-miterlimit:4;" d="M 195.758191 189.327224 C 214.444101 146.802396 227.625033 140.051192 243.752291 132.213587 C 248.404385 129.885585 248.869594 132.834387 250.032618 135.783189 C 261.507782 163.952007 272.982946 192.120826 284.535646 220.289644 C 287.404437 227.351248 290.660902 234.180053 293.684763 241.164057 C 294.847787 243.724859 293.994903 245.12166 290.738437 247.294461 C 273.9909 258.468868 264.376573 263.823272 249.024664 275.385679 C 241.503779 280.972883 239.332802 277.01528 235.998802 272.824878 C 231.191638 266.694474 225.531591 260.95207 221.112102 254.666466 C 217.002752 248.846462 196.068331 191.267225 195.758191 189.327224 Z M 195.758191 189.327224 " transform="matrix(0.0503805,0,0,0.0503382,-3.971779,-3.010868)"/><path style="fill:none;stroke-width:0.25;stroke-linecap:round;stroke-linejoin:round;stroke:rgb(0%,0%,0%);stroke-opacity:1;stroke-miterlimit:4;" d="M 154.819767 379.602546 C 156.13786 380.844147 156.60307 383.016948 157.068279 384.87935 C 143.499672 384.491349 142.646789 388.992152 138.847579 379.369746 C 136.366462 371.842541 134.970834 370.911341 132.334648 356.943332 C 131.171624 351.200928 132.179578 337.310519 135.823718 334.361717 C 137.839625 349.338527 142.491719 368.195339 154.819767 379.602546 Z M 154.819767 379.602546 " transform="matrix(0.0503805,0,0,0.0503382,-3.971779,-3.010868)"/><path style="fill:none;stroke-width:0.25;stroke-linecap:round;stroke-linejoin:round;stroke:rgb(0%,0%,0%);stroke-opacity:1;stroke-miterlimit:4;" d="M 175.521584 417.00577 C 172.265118 424.765775 171.102095 432.913781 170.947025 441.294586 C 170.947025 442.536187 171.722374 444.631388 169.008653 444.088188 L 116.982738 444.088188 C 113.803808 444.553788 114.036412 442.380987 114.036412 440.363385 C 113.803808 426.860977 123.805809 406.607364 140.941021 402.572161 C 145.980789 401.40816 151.175627 400.63216 156.29293 400.32176 C 168.310839 399.312959 172.575258 403.115361 176.529537 412.194567 C 177.149817 413.513768 176.141863 415.608969 175.521584 417.00577 Z M 175.521584 417.00577 " transform="matrix(0.0503805,0,0,0.0503382,-3.971779,-3.010868)"/><path style="fill:none;stroke-width:0.25;stroke-linecap:round;stroke-linejoin:round;stroke:rgb(0%,0%,0%);stroke-opacity:1;stroke-miterlimit:4;" d="M 250.032618 444.088188 C 230.416289 444.165788 210.799961 444.165788 191.183633 444.398588 C 186.454004 444.398588 187.229353 444.864188 187.151818 439.044185 C 187.694562 421.972174 193.819819 410.176966 205.450053 408.081765 C 223.438149 404.744962 238.557453 406.607364 247.551501 422.049774 C 249.334803 425.153776 253.986897 441.449786 250.032618 444.088188 Z M 250.032618 444.088188 " transform="matrix(0.0503805,0,0,0.0503382,-3.971779,-3.010868)"/><path style="fill:none;stroke-width:0.25;stroke-linecap:round;stroke-linejoin:round;stroke:rgb(0%,0%,0%);stroke-opacity:1;stroke-miterlimit:4;" d="M 254.141967 404.977763 C 245.535594 396.441757 233.130011 390.388953 221.112102 390.078553 C 209.326798 389.690553 199.634936 391.552954 189.322795 398.614559 C 188.314841 399.312959 186.919213 399.933759 186.221399 398.769759 C 184.748236 396.596957 183.275073 394.346556 183.972887 391.475354 C 189.167725 371.221741 193.664749 350.114527 198.394378 329.783314 C 202.348657 312.711303 213.823822 300.605695 220.957032 285.240885 C 222.430195 281.904083 224.833777 282.059283 227.237359 284.309685 C 237.937174 294.164891 237.006755 294.475291 227.469963 302.778497 C 223.748288 306.192899 219.01866 309.762501 215.994799 313.797704 C 207.93117 324.739311 209.171728 332.964916 218.243311 343.130523 C 228.632987 354.69293 245.690663 365.324137 266.004806 358.184932 C 266.004806 364.858537 259.25927 399.157759 258.018712 404.589762 C 257.243363 407.538564 255.46006 406.296963 254.141967 404.977763 Z M 254.141967 404.977763 " transform="matrix(0.0503805,0,0,0.0503382,-3.971779,-3.010868)"/><path style="fill:none;stroke-width:0.25;stroke-linecap:round;stroke-linejoin:round;stroke:rgb(0%,0%,0%);stroke-opacity:1;stroke-miterlimit:4;" d="M 328.110256 444.243388 C 309.191742 444.320988 290.195693 444.243388 271.277179 444.320988 C 265.617131 444.320988 267.633039 440.440985 267.245364 438.035384 C 267.477969 423.524175 277.3249 407.150564 296.708624 406.995364 C 303.60923 406.995364 310.819975 406.374564 317.255371 409.633766 C 326.094349 414.134569 331.134117 423.524175 331.056582 442.846587 C 331.056582 445.019388 329.195745 444.243388 328.110256 444.243388 Z M 328.110256 444.243388 " transform="matrix(0.0503805,0,0,0.0503382,-3.971779,-3.010868)"/><path style="fill:none;stroke-width:0.25;stroke-linecap:round;stroke-linejoin:round;stroke:rgb(0%,0%,0%);stroke-opacity:1;stroke-miterlimit:4;" d="M 331.211652 396.752157 C 330.668908 398.769759 330.203699 398.769759 327.955187 397.760958 C 308.881603 388.681752 288.800065 384.80175 266.004806 402.028961 C 268.330853 393.337755 272.827877 363.849736 274.688714 353.91693 C 276.084342 350.347327 286.008809 341.268122 289.497879 330.792115 C 292.986949 328.774514 312.990952 326.291312 327.489977 318.764107 C 330.281233 317.367306 331.211652 317.755306 331.134117 321.014509 C 331.134117 325.515311 333.925373 378.981746 333.925373 378.981746 C 333.925373 378.981746 332.45221 391.785754 331.211652 396.752157 Z M 331.211652 396.752157 " transform="matrix(0.0503805,0,0,0.0503382,-3.971779,-3.010868)"/><path style="fill:none;stroke-width:0.25;stroke-linecap:round;stroke-linejoin:round;stroke:rgb(0%,0%,0%);stroke-opacity:1;stroke-miterlimit:4;" d="M 390.603381 437.957784 C 390.758451 442.380987 391.5338 444.398588 386.571567 444.320988 C 381.686869 444.320988 357.728586 444.088188 351.758399 444.320988 C 348.501934 444.476188 346.796166 443.312187 346.873701 440.363385 C 347.18384 433.301781 346.796166 426.628177 344.547654 419.954572 C 342.531747 414.056968 344.15998 404.434562 347.028771 400.24416 C 359.977098 398.847359 389.517893 404.822563 390.603381 437.957784 Z M 390.603381 437.957784 " transform="matrix(0.0503805,0,0,0.0503382,-3.971779,-3.010868)"/><path style="fill:none;stroke-width:0.25;stroke-linecap:round;stroke-linejoin:round;stroke:rgb(0%,0%,0%);stroke-opacity:1;stroke-miterlimit:4;" d="M 352.456213 279.265682 C 352.611283 285.939286 349.897562 289.974489 344.625189 293.388891 C 326.714628 304.873698 308.261323 314.961705 286.396483 316.203305 C 283.372622 316.513706 280.503831 315.349705 278.487924 313.176903 C 270.269225 304.640898 261.817922 296.260093 253.366618 288.034487 C 250.963036 285.706486 249.722478 283.456084 252.591269 281.438483 C 300.507834 245.97526 308.028719 242.948858 328.497931 242.948858 C 332.91742 243.259258 346.098352 243.492059 350.827981 243.647259 C 351.44826 243.569659 352.068539 243.880059 352.456213 244.268059 C 352.921423 244.733659 353.154027 245.35446 353.154027 245.97526 C 353.154027 251.484864 352.223609 269.720876 352.456213 279.265682 Z M 352.456213 279.265682 " transform="matrix(0.0503805,0,0,0.0503382,-3.971779,-3.010868)"/><path style="fill:none;stroke-width:0.25;stroke-linecap:round;stroke-linejoin:round;stroke:rgb(0%,0%,0%);stroke-opacity:1;stroke-miterlimit:4;" d="M 354.084446 202.907232 C 354.704725 206.864835 353.774306 232.472852 353.774306 235.188853 C 353.774306 237.128855 353.386632 238.060055 351.060585 237.827255 C 326.171884 235.499253 312.370673 237.516855 305.857742 239.689656 C 303.066485 240.620857 301.205648 242.328058 299.887555 239.068856 C 290.893507 217.030442 254.529641 130.816786 254.529641 130.816786 C 254.529641 130.816786 251.97099 127.169584 259.802014 125.151982 C 274.688714 121.34958 288.644995 118.711178 303.919369 122.979181 C 312.525743 125.384783 321.442255 130.583986 328.265326 136.32639 C 333.07249 140.361592 333.460164 146.879996 335.553606 152.312 C 341.678863 168.22001 352.611283 198.79443 354.084446 202.907232 Z M 354.084446 202.907232 " transform="matrix(0.0503805,0,0,0.0503382,-3.971779,-3.010868)"/><path style="fill:none;stroke-width:0.25;stroke-linecap:round;stroke-linejoin:round;stroke:rgb(0%,0%,0%);stroke-opacity:1;stroke-miterlimit:4;" d="M 349.354818 123.444781 C 349.354818 123.444781 344.00491 125.772783 342.609282 123.910382 C 340.981049 121.65998 353.076492 93.258362 376.6471 81.230354 C 383.702776 77.660752 389.828032 74.78955 398.899615 75.02235 C 407.971198 75.25515 419.368827 87.981558 419.523897 96.284764 C 419.523897 95.663963 349.354818 123.444781 349.354818 123.444781 Z M 349.354818 123.444781 " transform="matrix(0.0503805,0,0,0.0503382,-3.971779,-3.010868)"/></g></svg>