<svg xmlns="http://www.w3.org/2000/svg" xmlns:xlink="http://www.w3.org/1999/xlink" width="20px" height="20px" viewBox="0 0 20 20" version="1.1"><g id="surface1"><path style=" stroke:none;fill-rule:nonzero;fill:rgb(21.176471%,24.705882%,24.313726%);fill-opacity:1;" d="M 17.085938 19.066406 C 17.085938 19.550781 16.699219 19.96875 16.214844 19.96875 L 3.785156 19.96875 C 3.300781 19.96875 2.914062 19.550781 2.914062 19.066406 L 2.914062 0.902344 C 2.914062 0.417969 3.300781 0 3.785156 0 L 16.214844 0 C 16.699219 0 17.085938 0.417969 17.085938 0.902344 Z M 17.085938 19.066406 "/><path style=" stroke:none;fill-rule:nonzero;fill:rgb(8.235294%,9.803922%,9.411765%);fill-opacity:1;" d="M 12.0625 12.398438 C 12.125 12.398438 12.15625 12.367188 12.191406 12.335938 C 12.320312 12.207031 12.320312 12.011719 12.191406 11.851562 L 11.675781 11.335938 C 11.546875 11.207031 11.320312 11.207031 11.191406 11.335938 C 11.160156 11.367188 11.128906 11.433594 11.128906 11.464844 C 9.839844 12.140625 4.6875 16.78125 4.363281 17.132812 L 3.878906 17.617188 C 3.527344 17.972656 3.527344 18.582031 3.878906 18.9375 L 4.589844 19.644531 C 4.945312 20 5.554688 20 5.910156 19.644531 L 6.394531 19.164062 C 6.746094 18.839844 11.386719 13.6875 12.0625 12.398438 Z M 12.0625 12.398438 "/><path style=" stroke:none;fill-rule:nonzero;fill:rgb(8.235294%,9.803922%,9.411765%);fill-opacity:1;" d="M 2.914062 0.871094 C 2.914062 0.386719 3.300781 0 3.785156 0 L 16.214844 0 C 16.699219 0 17.085938 0.417969 17.085938 0.902344 L 17.085938 19.097656 C 17.085938 19.582031 16.699219 20 16.214844 20 "/><path style=" stroke:none;fill-rule:nonzero;fill:rgb(8.235294%,9.803922%,9.411765%);fill-opacity:1;" d="M 15.441406 9.917969 C 15.441406 12.925781 13.007812 15.363281 10 15.363281 C 6.992188 15.363281 4.558594 12.925781 4.558594 9.917969 C 4.558594 6.914062 6.992188 4.476562 10 4.476562 C 13.007812 4.476562 15.441406 6.914062 15.441406 9.917969 Z M 15.441406 9.917969 "/><path style=" stroke:none;fill-rule:nonzero;fill:rgb(10.588235%,80.784315%,72.156864%);fill-opacity:1;" d="M 15.441406 8.984375 C 15.441406 11.992188 13.007812 14.429688 10 14.429688 C 6.992188 14.429688 4.558594 11.992188 4.558594 8.984375 C 4.558594 5.980469 6.992188 3.542969 10 3.542969 C 13.007812 3.542969 15.441406 5.980469 15.441406 8.984375 Z M 15.441406 8.984375 "/><path style=" stroke:none;fill-rule:nonzero;fill:rgb(5.098039%,74.901962%,72.941178%);fill-opacity:1;" d="M 11.675781 11.335938 C 11.546875 11.207031 11.320312 11.207031 11.191406 11.335938 C 11.160156 11.367188 11.128906 11.433594 11.128906 11.464844 C 10.546875 11.753906 9.195312 12.851562 7.875 14.007812 C 8.519531 14.300781 9.257812 14.429688 10 14.429688 C 10.191406 14.429688 10.386719 14.429688 10.578125 14.394531 C 11.289062 13.527344 11.867188 12.785156 12.0625 12.367188 C 12.125 12.367188 12.15625 12.335938 12.191406 12.304688 C 12.320312 12.175781 12.320312 11.980469 12.191406 11.820312 Z M 11.675781 11.335938 "/><path style=" stroke:none;fill-rule:nonzero;fill:rgb(5.098039%,74.901962%,72.941178%);fill-opacity:1;" d="M 6.136719 5.152344 C 8.261719 3.027344 11.707031 3.027344 13.832031 5.152344 C 15.957031 7.277344 15.957031 10.726562 13.832031 12.851562 "/><path style=" stroke:none;fill-rule:nonzero;fill:rgb(8.235294%,9.803922%,9.411765%);fill-opacity:1;" d="M 11 8.984375 C 11 9.535156 10.550781 9.984375 10 9.984375 C 9.449219 9.984375 9 9.535156 9 8.984375 C 9 8.433594 9.449219 7.988281 10 7.988281 C 10.550781 7.988281 11 8.433594 11 8.984375 Z M 11 8.984375 "/><path style=" stroke:none;fill-rule:nonzero;fill:rgb(77.254903%,78.823531%,78.823531%);fill-opacity:1;" d="M 11.738281 12.078125 C 11.804688 12.078125 11.835938 12.046875 11.867188 12.011719 C 11.996094 11.882812 11.996094 11.660156 11.867188 11.53125 L 11.351562 11.015625 C 11.222656 10.886719 11 10.886719 10.871094 11.015625 C 10.835938 11.046875 10.804688 11.109375 10.804688 11.144531 C 9.515625 11.820312 4.363281 16.457031 4.042969 16.8125 L 3.558594 17.261719 C 3.203125 17.617188 3.203125 18.230469 3.558594 18.582031 L 4.265625 19.292969 C 4.621094 19.644531 5.234375 19.644531 5.585938 19.292969 L 6.070312 18.808594 C 6.394531 18.484375 11.0625 13.367188 11.738281 12.078125 Z M 11.738281 12.078125 "/><path style=" stroke:none;fill-rule:nonzero;fill:rgb(71.372551%,71.764708%,71.764708%);fill-opacity:1;" d="M 4.265625 19.324219 C 4.621094 19.679688 5.234375 19.679688 5.585938 19.324219 L 6.070312 18.839844 C 6.394531 18.519531 11.0625 13.398438 11.738281 12.078125 C 11.804688 12.078125 11.835938 12.046875 11.867188 12.011719 C 11.996094 11.882812 11.996094 11.660156 11.867188 11.53125 L 11.351562 11.015625 C 11.222656 10.886719 11 10.886719 10.871094 11.015625 C 10.835938 11.046875 10.804688 11.109375 10.804688 11.144531 "/><path style=" stroke:none;fill-rule:nonzero;fill:rgb(71.372551%,71.764708%,71.764708%);fill-opacity:1;" d="M 4.171875 1.351562 C 4.007812 1.546875 4.042969 1.835938 4.234375 2.027344 C 4.429688 2.222656 4.71875 2.222656 4.910156 2.09375 Z M 4.171875 1.351562 "/><path style=" stroke:none;fill-rule:nonzero;fill:rgb(71.372551%,71.764708%,71.764708%);fill-opacity:1;" d="M 4.265625 1.257812 L 4.976562 1.964844 C 5.136719 1.769531 5.105469 1.480469 4.910156 1.289062 C 4.78125 1.09375 4.492188 1.09375 4.265625 1.257812 Z M 4.265625 1.257812 "/><path style=" stroke:none;fill-rule:nonzero;fill:rgb(71.372551%,71.764708%,71.764708%);fill-opacity:1;" d="M 14.925781 1.609375 C 14.960938 1.933594 15.183594 2.0625 15.441406 2.0625 C 15.699219 2.0625 15.925781 1.933594 15.957031 1.609375 Z M 14.925781 1.609375 "/><path style=" stroke:none;fill-rule:nonzero;fill:rgb(71.372551%,71.764708%,71.764708%);fill-opacity:1;" d="M 14.925781 1.480469 L 15.957031 1.480469 C 15.925781 1.160156 15.699219 1.03125 15.441406 1.03125 C 15.152344 1.03125 14.960938 1.160156 14.925781 1.480469 Z M 14.925781 1.480469 "/><path style=" stroke:none;fill-rule:nonzero;fill:rgb(71.372551%,71.764708%,71.764708%);fill-opacity:1;" d="M 15.828125 18.613281 C 15.992188 18.421875 15.957031 18.132812 15.765625 17.9375 C 15.570312 17.746094 15.28125 17.746094 15.089844 17.875 Z M 15.828125 18.613281 "/><path style=" stroke:none;fill-rule:nonzero;fill:rgb(71.372551%,71.764708%,71.764708%);fill-opacity:1;" d="M 15.734375 18.710938 L 15.023438 18.003906 C 14.863281 18.195312 14.894531 18.484375 15.089844 18.679688 C 15.21875 18.871094 15.507812 18.871094 15.734375 18.710938 Z M 15.734375 18.710938 "/><path style=" stroke:none;fill-rule:nonzero;fill:rgb(8.235294%,9.803922%,9.411765%);fill-opacity:1;" d="M 5.074219 18.261719 C 5.039062 17.9375 4.816406 17.808594 4.558594 17.808594 C 4.300781 17.808594 4.074219 17.9375 4.042969 18.261719 Z M 5.074219 18.261719 "/><path style=" stroke:none;fill-rule:nonzero;fill:rgb(8.235294%,9.803922%,9.411765%);fill-opacity:1;" d="M 5.074219 18.359375 L 4.042969 18.359375 C 4.074219 18.679688 4.300781 18.808594 4.558594 18.808594 C 4.847656 18.808594 5.039062 18.679688 5.074219 18.359375 Z M 5.074219 18.359375 "/></g></svg>