<svg xmlns="http://www.w3.org/2000/svg" xmlns:xlink="http://www.w3.org/1999/xlink" width="20px" height="20px" viewBox="0 0 20 20" version="1.1"><g id="surface1"><path style=" stroke:none;fill-rule:nonzero;fill:rgb(95.686275%,26.274511%,21.176471%);fill-opacity:1;" d="M 2.5 12.5 C 1.121094 12.5 0 11.378906 0 10 C 0 8.621094 1.121094 7.5 2.5 7.5 C 3.878906 7.5 5 8.621094 5 10 C 5 10.230469 4.8125 10.417969 4.582031 10.417969 L 0.886719 10.417969 C 1.074219 11.152344 1.738281 11.667969 2.5 11.667969 C 3.558594 11.667969 3.851562 11.507812 4.253906 10.992188 C 4.398438 10.8125 4.660156 10.78125 4.839844 10.921875 C 5.019531 11.0625 5.050781 11.324219 4.910156 11.507812 C 4.351562 12.257812 3.425781 12.636719 2.5 12.5 Z M 0.886719 9.582031 L 4.113281 9.582031 C 3.882812 8.691406 2.976562 8.15625 2.082031 8.386719 C 1.496094 8.539062 1.039062 8.996094 0.886719 9.582031 Z M 0.886719 9.582031 "/><path style=" stroke:none;fill-rule:nonzero;fill:rgb(12.941177%,58.823532%,95.294118%);fill-opacity:1;" d="M 7.5 12.5 C 6.117188 12.5 5 11.378906 5 10 C 5 8.621094 6.117188 7.5 7.5 7.5 C 8.878906 7.5 10 8.621094 10 10 C 10 11.378906 8.878906 12.5 7.5 12.5 Z M 7.5 8.332031 C 6.578125 8.332031 5.832031 9.078125 5.832031 10 C 5.832031 10.921875 6.578125 11.667969 7.5 11.667969 C 8.421875 11.667969 9.167969 10.921875 9.167969 10 C 9.167969 9.078125 8.421875 8.332031 7.5 8.332031 Z M 7.5 8.332031 "/><path style=" stroke:none;fill-rule:nonzero;fill:rgb(12.941177%,58.823532%,95.294118%);fill-opacity:1;" d="M 5.417969 12.5 C 5.1875 12.5 5 12.3125 5 12.082031 L 5 6.25 C 5 6.019531 5.1875 5.832031 5.417969 5.832031 C 5.648438 5.832031 5.832031 6.019531 5.832031 6.25 L 5.832031 12.082031 C 5.832031 12.3125 5.648438 12.5 5.417969 12.5 Z M 5.417969 12.5 "/><path style=" stroke:none;fill-rule:nonzero;fill:rgb(100%,75.686276%,2.745098%);fill-opacity:1;" d="M 14.582031 12.5 C 14.351562 12.5 14.167969 12.3125 14.167969 12.082031 L 14.167969 9.582031 C 14.167969 8.757812 13 8.332031 12.5 8.332031 C 11.980469 8.261719 11.46875 8.503906 11.195312 8.953125 C 11.082031 9.152344 10.828125 9.222656 10.628906 9.109375 C 10.433594 8.996094 10.359375 8.746094 10.46875 8.546875 C 10.882812 7.835938 11.675781 7.425781 12.5 7.5 C 13.398438 7.5 15 8.195312 15 9.582031 L 15 12.082031 C 15 12.3125 14.8125 12.5 14.582031 12.5 Z M 14.582031 12.5 "/><path style=" stroke:none;fill-rule:nonzero;fill:rgb(100%,75.686276%,2.745098%);fill-opacity:1;" d="M 12.082031 12.5 C 10.269531 12.5 10 11.457031 10 10.832031 C 10 10.558594 10.113281 10.292969 10.3125 10.105469 C 10.945312 9.496094 12.394531 9.5 13.960938 9.566406 C 14.203125 9.574219 14.417969 9.582031 14.582031 9.582031 C 14.8125 9.582031 15 9.769531 15 10 C 15 10.074219 14.980469 10.144531 14.945312 10.210938 C 15.003906 10.3125 15.015625 10.433594 14.980469 10.546875 C 14.523438 11.746094 13.363281 12.527344 12.082031 12.5 Z M 12.851562 10.371094 C 12.179688 10.296875 11.5 10.414062 10.890625 10.703125 C 10.851562 10.734375 10.832031 10.785156 10.832031 10.832031 C 10.832031 11.246094 10.980469 11.667969 12.082031 11.667969 C 12.957031 11.695312 13.765625 11.199219 14.136719 10.40625 L 13.925781 10.398438 C 13.644531 10.386719 13.257812 10.371094 12.851562 10.371094 Z M 12.851562 10.371094 "/><path style=" stroke:none;fill-rule:nonzero;fill:rgb(29.803923%,68.627453%,31.37255%);fill-opacity:1;" d="M 17.082031 12.082031 C 16.941406 12.082031 16.8125 12.011719 16.734375 11.898438 L 14.234375 8.148438 C 14.109375 7.957031 14.160156 7.699219 14.351562 7.570312 C 14.542969 7.441406 14.800781 7.492188 14.929688 7.683594 L 17.429688 11.433594 C 17.558594 11.625 17.503906 11.886719 17.3125 12.011719 C 17.246094 12.058594 17.164062 12.082031 17.082031 12.082031 Z M 17.082031 12.082031 "/><path style=" stroke:none;fill-rule:nonzero;fill:rgb(29.803923%,68.627453%,31.37255%);fill-opacity:1;" d="M 16.25 14.167969 C 16.019531 14.167969 15.832031 13.980469 15.832031 13.75 C 15.832031 13.679688 15.851562 13.605469 15.886719 13.542969 L 19.21875 7.710938 C 19.335938 7.511719 19.589844 7.441406 19.789062 7.554688 C 19.992188 7.671875 20.058594 7.925781 19.945312 8.125 L 16.609375 13.960938 C 16.535156 14.089844 16.398438 14.167969 16.25 14.167969 Z M 16.25 14.167969 "/></g></svg>