<svg xmlns="http://www.w3.org/2000/svg" xmlns:xlink="http://www.w3.org/1999/xlink" width="20px" height="20px" viewBox="0 0 20 20" version="1.1"><g id="surface1"><path style=" stroke:none;fill-rule:nonzero;fill:rgb(0%,0%,0%);fill-opacity:1;" d="M 18.714844 8.359375 L 3.335938 8.359375 L 3.335938 7.738281 C 3.335938 7.433594 3.582031 7.191406 3.882812 7.191406 L 15.792969 7.191406 C 16.578125 7.191406 17.21875 6.550781 17.21875 5.765625 C 17.21875 4.976562 16.578125 4.339844 15.792969 4.339844 L 3.6875 4.339844 C 3.386719 4.339844 3.140625 4.09375 3.140625 3.789062 L 3.140625 2.871094 C 3.140625 2.628906 2.941406 2.429688 2.699219 2.429688 C 2.457031 2.429688 2.261719 2.628906 2.261719 2.871094 L 2.261719 3.789062 C 2.261719 4.578125 2.902344 5.214844 3.6875 5.214844 L 15.792969 5.214844 C 16.09375 5.214844 16.339844 5.460938 16.339844 5.765625 C 16.339844 6.066406 16.09375 6.3125 15.792969 6.3125 L 3.882812 6.3125 C 3.097656 6.3125 2.460938 6.953125 2.460938 7.738281 L 2.460938 8.359375 L 1.285156 8.359375 C 0.578125 8.359375 0 8.933594 0 9.644531 L 0 16.285156 C 0 16.992188 0.578125 17.570312 1.285156 17.570312 L 18.714844 17.570312 C 19.421875 17.570312 20 16.992188 20 16.285156 L 20 9.644531 C 20 8.933594 19.421875 8.359375 18.714844 8.359375 Z M 19.121094 16.285156 C 19.121094 16.507812 18.941406 16.691406 18.714844 16.691406 L 1.285156 16.691406 C 1.058594 16.691406 0.878906 16.507812 0.878906 16.285156 L 0.878906 9.644531 C 0.878906 9.417969 1.058594 9.234375 1.285156 9.234375 L 18.714844 9.234375 C 18.941406 9.234375 19.121094 9.417969 19.121094 9.644531 Z M 19.121094 16.285156 "/><path style=" stroke:none;fill-rule:nonzero;fill:rgb(0%,0%,0%);fill-opacity:1;" d="M 13.707031 9.71875 L 1.796875 9.71875 C 1.554688 9.71875 1.359375 9.914062 1.359375 10.15625 L 1.359375 15.769531 C 1.359375 16.011719 1.554688 16.210938 1.796875 16.210938 L 13.707031 16.210938 C 13.949219 16.210938 14.144531 16.011719 14.144531 15.769531 L 14.144531 10.15625 C 14.144531 9.914062 13.949219 9.71875 13.707031 9.71875 Z M 13.265625 11.589844 L 12.347656 11.589844 L 12.347656 10.59375 L 13.265625 10.59375 Z M 10.308594 11.589844 L 10.308594 10.59375 L 11.472656 10.59375 L 11.472656 11.589844 Z M 9.390625 13.460938 L 9.390625 12.464844 L 10.550781 12.464844 L 10.550781 13.460938 Z M 5.308594 13.460938 L 5.308594 12.464844 L 6.472656 12.464844 L 6.472656 13.460938 Z M 4.433594 12.464844 L 4.433594 13.460938 L 3.402344 13.460938 L 3.402344 12.464844 Z M 7.347656 12.464844 L 8.511719 12.464844 L 8.511719 13.460938 L 7.347656 13.460938 Z M 9.433594 11.589844 L 8.269531 11.589844 L 8.269531 10.59375 L 9.433594 10.59375 Z M 7.394531 11.589844 L 6.230469 11.589844 L 6.230469 10.59375 L 7.394531 10.59375 Z M 5.355469 11.589844 L 4.191406 11.589844 L 4.191406 10.59375 L 5.355469 10.59375 Z M 2.523438 13.460938 L 2.238281 13.460938 L 2.238281 12.464844 L 2.523438 12.464844 Z M 5.355469 14.339844 L 5.355469 15.332031 L 4.191406 15.332031 L 4.191406 14.339844 Z M 6.230469 14.339844 L 9.433594 14.339844 L 9.433594 15.332031 L 6.230469 15.332031 Z M 10.308594 14.339844 L 11.472656 14.339844 L 11.472656 15.332031 L 10.308594 15.332031 Z M 11.429688 13.460938 L 11.429688 12.464844 L 13.265625 12.464844 L 13.265625 13.460938 Z M 3.316406 10.59375 L 3.316406 11.589844 L 2.238281 11.589844 L 2.238281 10.59375 Z M 2.238281 14.339844 L 3.316406 14.339844 L 3.316406 15.332031 L 2.238281 15.332031 Z M 12.347656 15.332031 L 12.347656 14.339844 L 13.265625 14.339844 L 13.265625 15.332031 Z M 12.347656 15.332031 "/><path style=" stroke:none;fill-rule:nonzero;fill:rgb(0%,0%,0%);fill-opacity:1;" d="M 18.203125 9.71875 L 15.265625 9.71875 C 15.023438 9.71875 14.828125 9.914062 14.828125 10.15625 L 14.828125 15.769531 C 14.828125 16.011719 15.023438 16.210938 15.265625 16.210938 L 18.203125 16.210938 C 18.445312 16.210938 18.640625 16.011719 18.640625 15.769531 L 18.640625 10.15625 C 18.640625 9.914062 18.445312 9.71875 18.203125 9.71875 Z M 17.761719 11.589844 L 17.152344 11.589844 L 17.152344 10.59375 L 17.761719 10.59375 Z M 17.152344 12.464844 L 17.761719 12.464844 L 17.761719 13.460938 L 17.152344 13.460938 Z M 16.273438 13.460938 L 15.703125 13.460938 L 15.703125 12.464844 L 16.273438 12.464844 Z M 16.273438 10.59375 L 16.273438 11.589844 L 15.703125 11.589844 L 15.703125 10.59375 Z M 15.703125 14.339844 L 16.273438 14.339844 L 16.273438 15.332031 L 15.703125 15.332031 Z M 17.152344 15.332031 L 17.152344 14.339844 L 17.761719 14.339844 L 17.761719 15.332031 Z M 17.152344 15.332031 "/></g></svg>