<?xml version="1.0" encoding="iso-8859-1"?>
<!-- Generator: Adobe Illustrator 19.0.0, SVG Export Plug-In . SVG Version: 6.00 Build 0)  -->
<svg version="1.1" id="Layer_1" xmlns="http://www.w3.org/2000/svg" xmlns:xlink="http://www.w3.org/1999/xlink" x="0px" y="0px"
	 viewBox="0 0 470 470" style="enable-background:new 0 0 470 470;" xml:space="preserve">
<g>
	<g>
		<g>
			<path d="M37.5,372.5h200c4.143,0,7.5-3.358,7.5-7.5V245c0-4.142-3.357-7.5-7.5-7.5h-200c-4.143,0-7.5,3.358-7.5,7.5v120
				C30,369.142,33.357,372.5,37.5,372.5z M205,252.5h25v25h-25V252.5z M205,292.5h25v25h-25V292.5z M205,332.5h25v25h-25V332.5z
				 M165,252.5h25v25h-25V252.5z M165,292.5h25v25h-25V292.5z M125,252.5h25v25h-25V252.5z M125,292.5h25v25h-25V292.5z M85,252.5
				h25v25H85V252.5z M85,292.5h25v25H85V292.5z M85,332.5h105v25H85V332.5z M45,252.5h25v25H45V252.5z M45,292.5h25v25H45V292.5z
				 M45,332.5h25v25H45V332.5z"/>
			<path d="M37.5,212.5h200c4.143,0,7.5-3.358,7.5-7.5v-40c0-4.142-3.357-7.5-7.5-7.5h-200c-4.143,0-7.5,3.358-7.5,7.5v40
				C30,209.142,33.357,212.5,37.5,212.5z M205,172.5h25v25h-25V172.5z M165,172.5h25v25h-25V172.5z M125,172.5h25v25h-25V172.5z
				 M85,172.5h25v25H85V172.5z M45,172.5h25v25H45V172.5z"/>
			<path d="M267.5,212.5h55c4.143,0,7.5-3.358,7.5-7.5v-40c0-4.142-3.357-7.5-7.5-7.5h-55c-4.143,0-7.5,3.358-7.5,7.5v40
				C260,209.142,263.357,212.5,267.5,212.5z M275,172.5h40v25h-40V172.5z"/>
			<path d="M267.5,372.5h55c4.143,0,7.5-3.358,7.5-7.5V245c0-4.142-3.357-7.5-7.5-7.5h-55c-4.143,0-7.5,3.358-7.5,7.5v50
				c0,4.142,3.357,7.5,7.5,7.5s7.5-3.358,7.5-7.5v-2.5h40v25h-47.5c-4.143,0-7.5,3.358-7.5,7.5v40
				C260,369.142,263.357,372.5,267.5,372.5z M275,277.5v-25h40v25H275z M275,332.5h40v25h-40V332.5z"/>
			<path d="M352.5,372.5h80c4.143,0,7.5-3.358,7.5-7.5V205c0-4.142-3.357-7.5-7.5-7.5h-80c-4.143,0-7.5,3.358-7.5,7.5v160
				C345,369.142,348.357,372.5,352.5,372.5z M400,212.5h25v25h-25V212.5z M400,252.5h25v25h-25V252.5z M400,292.5h25v25h-25V292.5z
				 M400,332.5h25v25h-25V332.5z M360,212.5h25v25h-25V212.5z M360,252.5h25v25h-25V252.5z M360,292.5h25v25h-25V292.5z M360,332.5
				h25v25h-25V332.5z"/>
			<path d="M462.5,127.5h-160V105c0-12.406,10.094-22.5,22.5-22.5h137.5c4.143,0,7.5-3.358,7.5-7.5c0-4.142-3.357-7.5-7.5-7.5H325
				c-20.678,0-37.5,16.823-37.5,37.5v22.5H7.5c-4.143,0-7.5,3.358-7.5,7.5v260c0,4.142,3.357,7.5,7.5,7.5h455
				c4.143,0,7.5-3.358,7.5-7.5V135C470,130.858,466.643,127.5,462.5,127.5z M455,387.5H15v-245h440V387.5z"/>
		</g>
	</g>
</g>
<g>
</g>
<g>
</g>
<g>
</g>
<g>
</g>
<g>
</g>
<g>
</g>
<g>
</g>
<g>
</g>
<g>
</g>
<g>
</g>
<g>
</g>
<g>
</g>
<g>
</g>
<g>
</g>
<g>
</g>
</svg>
