<svg id="Layer_1" data-name="Layer 1" xmlns="http://www.w3.org/2000/svg" viewBox="0 0 357.28001 397.31226"><defs><style>.cls-1{fill:#ececeb;}.cls-2{fill:#000005;}.cls-3{fill:#a1dbe4;}.cls-4{fill:#ed322c;}.cls-5{fill:#f8ee78;}.cls-6{fill:#84c454;}.cls-7,.cls-8{fill:none;stroke:#000;stroke-width:0.25px;}.cls-7{stroke-miterlimit:10;}.cls-8{stroke-linecap:round;stroke-linejoin:round;}</style></defs><path class="cls-1" d="M327.97,397.73c-19.1-9.04-39.14-12.9-61.97,4.27,2.33-8.67,6.83-38.17,8.65-48.07,1.42-3.6,11.35-12.68,14.85-23.1,3.45-2.09,23.5-4.53,37.98-12.04,2.78-1.44,3.74-1.01,3.69,2.21-.07,4.49,2.77,58.01,2.77,58.01s-1.48,12.8-2.73,17.71C330.68,398.79,330.21,398.79,327.97,397.73Z" transform="translate(-78.83597 -59.81274)"/><path class="cls-2" d="M266,402c22.83-17.17,42.87-13.31,61.97-4.27,2.24,1.06,2.71,1.06,3.24-1.01,1.25-4.91,2.73-17.71,2.73-17.71s-2.84-53.52-2.77-58.01c.05-3.22-.91-3.65-3.69-2.21-14.48,7.51-34.53,9.95-37.98,12.04-3.5,10.42-13.43,19.5-14.85,23.1C272.83,363.83,268.33,393.33,266,402ZM174.35,185.19c.87-.16,2.25.46,2.42-.91.06-.52-.94-1.23-1.54-1.75-12.98-11.4-28.2-17.04-45.4-17.56-1.66,0-3.34-.13-4.99.02-16.96,1.47-30.55,5.88-29.03,27.65.25,3.54,1.34,4.66,4.76,4.43,8.63-.57,17.12-2.26,25.69-3.28C142.4,191.88,158.34,188.18,174.35,185.19ZM433.54,85.72c5.98,12.26.85,21.5-13.56,27.36-22.93,9.32-45.79,18.79-69.16,26.94-1.7.59-2.87,1.39-2.13,3.33,6.99,18.21,13.84,36.48,21.15,54.56,1.67,4.14,1.51,8.01,1.33,12.16-1.14,25.78-2.98,51.56-3,77.36,0,12.74-19.57,19.18-20.84,21.74-1.26,2.55,2.03,52.32,2.95,72.95.1,2.33.69,2.99,2.9,3.45,4.67.99,10.36,1.22,14.97,2.15,20.92,4.22,31.97,19.15,38.38,38.04,3.7,10.9,3.1,21.44-3.53,31.24H105c-7.22-8.91-8.06-26.57-2.7-36.95,5.76-11.15,12.45-21.17,23.87-27.25,2.38-1.27.94-3.08.21-4.72-3.72-8.28-7.56-16.42-9.14-25.57-1.17-6.79-.6-20.05.89-26.55-5.25.29-11.18.41-13.98-.87-3.04-1.4-5.72-3.53-5.69-6.95.03-3.52,1.69-6.84,4.91-8.23,5.3-2.29,11.92-2.9,17.56-3.29,3.43-.24,5.35-.95,6.41-4.08.99-2.95-1.47-3.8-2.96-5.26-8.36-8.26-10.29-18.11-5.55-28.37,3.97-8.61,13.47-14.45,22.58-13.88,12.07.77,21.63,8.34,23.57,18.68,2.23,11.81-3.87,21.25-15.07,26.52-1.13.53-5.37,1.78-4.91,4.15.47,2.42,14.89-.26,19.11,2.17a9.05336,9.05336,0,0,1,4.73,7.9c-.03,3.67-5.87,6.46-6.19,6.55a82.00838,82.00838,0,0,1-11.15,2.12c-.71,3.87,5.5,30,17.45,38.68.77.56,1.39,1.8,2.12,1.82,1.37.05.89-1.45,1.1-2.3,4.41-17.6,7.81-35.53,13.54-52.69,3.63-10.89,10.68-20.65,16.27-30.87,2.86-5.21,5.9-10.33,8.82-15.51.55-.98,1.5-2.13.58-3.22-8.13-9.66-9.72-22.2-14.59-33.29-4.43-10.08-8.09-20.53-11.59-30.98-1.17-3.49-2.68-4.47-6.05-3.87-15.86,2.81-31.71,5.64-47.6,8.25-10.5,1.72-21.02,3.54-31.61,4.49-11.27,1-17.16-3.2-19.82-14.23-4.09-16.92,2.87-36.17,17.32-43.53,17.23-8.78,35.24-10.09,53.92-4.26a103.9766,103.9766,0,0,1,32.11,16.28c3.18,2.41,4.74,2.39,6.53-1.44,11.95-25.57,31.03-43.62,57.75-52.97,11.81-4.13,23.9-7.64,36.56-8.29,13.9-.71,26.88,2.76,38.91,9.4,4.29,2.36,5.61,1.19,7.34-2.64,8.87-19.78,21.48-36.24,41.74-45.62C399.25,53.86,420.63,59.28,433.54,85.72Zm-84.17,37.72S419.51,95.69,419.5,96.3c-.13-8.35-11.5-21.05-20.57-21.27s-15.25,2.66-22.26,6.23c-23.57,11.99-35.7,40.43-34.06,42.64C344,125.77,349.37,123.44,349.37,123.44ZM386.6,444.35c4.94.04,4.12-1.94,3.97-6.43-1.07-33.09-30.57-39.09-43.53-37.66-2.88,4.17-4.49,13.78-2.49,19.68,2.27,6.7,2.66,13.4,2.35,20.41-.14,3,1.64,4.11,4.82,3.98C357.69,444.08,381.67,444.31,386.6,444.35ZM353.76,235.2c-.02-2.73.98-28.37.32-32.32-1.43-4.1-12.42-34.69-18.52-50.56-2.1-5.47-2.51-11.98-7.27-15.97-6.85-5.73-15.74-11-24.38-13.4-15.23-4.24-29.19-1.59-44.14,2.23-7.8,1.99-5.27,5.65-5.27,5.65S290.92,217,299.86,239.06c1.31,3.23,3.18,1.57,5.98.63,6.51-2.2,20.37-4.19,45.22-1.85C353.39,238.05,353.78,237.13,353.76,235.2Zm-.64,10.8a2.25627,2.25627,0,0,0-2.31-2.39c-4.72-.09-17.92-.35-22.3-.65-20.51,0-28.01,3.02-75.94,38.46-2.81,2.07-1.64,4.31.76,6.63q12.795,12.33,25.18,25.09a9.2018,9.2018,0,0,0,7.85,3.06c21.94-1.25,40.34-11.35,58.25-22.84,5.28-3.39,8.04-7.44,7.86-14.08C352.22,269.74,353.12,251.47,353.12,246ZM331.05,442.83c.12-19.33-4.92-28.72-13.78-33.2-6.43-3.24-13.67-2.66-20.55-2.62-19.37.11-29.28,16.48-29.49,31.01.39,2.4-1.62,6.33,4.05,6.32,18.94-.06,37.88-.01,56.82-.06C329.22,444.28,331.04,445.02,331.05,442.83Zm-40.3-195.54c3.25-2.17,4.08-3.54,2.95-6.12-3.05-6.96-6.27-13.84-9.15-20.86q-17.34-42.24-34.49-84.56c-1.2-2.94-1.64-5.85-6.32-3.57-16.11,7.84-29.28,14.65-48.02,57.13.31,1.98,21.3,59.54,25.41,65.36,4.41,6.26,10.04,12.06,14.89,18.13,3.33,4.18,5.5,8.17,13.02,2.55C264.4,263.85,274,258.47,290.75,247.29Zm-17.92,84.8c.47-1.69-.36-2.66-1.53-3.81q-9.885-9.705-19.57-19.62c-1.57-1.6-3.11-1.83-4.77-.41-6.16,5.26-12.68,10.13-17.65,16.67-1.63,2.14-2.12,4.24-.32,6.28,6.85,7.82,14.95,13.46,23.16,14.09C261.59,345.46,271.04,338.53,272.83,332.09ZM257.98,404.6c1.3-5.48,8.02-39.77,8.02-46.43-20.33,7.16-37.36-3.51-47.73-15.03-9.13-10.15-10.36-18.38-2.25-29.34,2.99-4.05,7.73-7.59,11.43-11.04,9.55-8.26,10.45-8.61-.18-18.48-2.42-2.24-4.81-2.36-6.34.93-7.14,15.36-18.59,27.48-22.54,44.55-4.71,20.34-9.23,41.49-14.38,61.73-.73,2.85.76,5.14,2.19,7.29.74,1.12,2.11.53,3.12-.16,10.33-7.04,20.01-8.91,31.8-8.57,12.02.35,24.41,6.38,32.99,14.9C255.49,406.32,257.28,407.53,257.98,404.6Zm-7.97,39.47c3.95-2.6-.66-18.93-2.47-22.03-8.97-15.42-24.1-17.29-42.09-13.98-11.64,2.14-17.78,13.94-18.26,30.96.03,5.85-.76,5.39,4,5.34C210.79,444.17,230.4,444.15,250.01,444.07Zm-74.47-27.08c.58-1.38,1.62-3.45,1.02-4.8-4.02-9.06-8.23-12.86-20.23-11.84a86.71006,86.71006,0,0,0-15.38,2.24c-17.17,3.99-27.12,24.27-26.93,37.77.03,2.02-.22,4.23,2.97,3.71h52.02c2.75.55,1.95-1.5,1.96-2.79C171.08,432.91,172.24,424.78,175.54,416.99Zm-18.49-32.14c-.46-1.84-.88-4.03-2.2-5.25-12.35-11.43-17.02-30.27-19.02-45.27-3.66,3-4.62,16.9-3.53,22.59,2.7,13.97,4.09,14.9,6.51,22.47C142.67,389,143.5,384.5,157.05,384.85Zm-6.88-96.68A10.17,10.17,0,1,0,140,298.33,10.17222,10.17222,0,0,0,150.17,288.17Z" transform="translate(-78.83597 -59.81274)"/><path class="cls-1" d="M419.5,96.3c.01-.61-70.13,27.14-70.13,27.14s-5.37,2.33-6.76.46c-1.64-2.21,10.49-30.65,34.06-42.64,7.01-3.57,13.19-6.45,22.26-6.23S419.37,87.95,419.5,96.3Z" transform="translate(-78.83597 -59.81274)"/><path class="cls-1" d="M390.57,437.92c.15,4.49.97,6.47-3.97,6.43-4.93-.04-28.91-.27-34.88-.02-3.18.13-4.96-.98-4.82-3.98.31-7.01-.08-13.71-2.35-20.41-2-5.9-.39-15.51,2.49-19.68C360,398.83,389.5,404.83,390.57,437.92Z" transform="translate(-78.83597 -59.81274)"/><path class="cls-1" d="M354.08,202.88c.66,3.95-.34,29.59-.32,32.32.02,1.93-.37,2.85-2.7,2.64-24.85-2.34-38.71-.35-45.22,1.85-2.8.94-4.67,2.6-5.98-.63C290.92,217,254.5,130.83,254.5,130.83s-2.53-3.66,5.27-5.65c14.95-3.82,28.91-6.47,44.14-2.23,8.64,2.4,17.53,7.67,24.38,13.4,4.76,3.99,5.17,10.5,7.27,15.97C341.66,168.19,352.65,198.78,354.08,202.88Zm-11.74-10.4a25.23,25.23,0,1,0-25.23,25.23A25.231,25.231,0,0,0,342.34,192.48Zm-65.79-33.31a3.835,3.835,0,1,0-3.83,3.83A3.83887,3.83887,0,0,0,276.55,159.17Zm-4.51-11.5a3.83,3.83,0,1,0-3.83,3.83A3.83246,3.83246,0,0,0,272.04,147.67Zm-6.12-12.34a3.83,3.83,0,1,0-3.83,3.84A3.83032,3.83032,0,0,0,265.92,135.33Z" transform="translate(-78.83597 -59.81274)"/><path class="cls-1" d="M350.81,243.61a2.25627,2.25627,0,0,1,2.31,2.39c0,5.47-.9,23.74-.65,33.28.18,6.64-2.58,10.69-7.86,14.08-17.91,11.49-36.31,21.59-58.25,22.84a9.2018,9.2018,0,0,1-7.85-3.06q-12.405-12.735-25.18-25.09c-2.4-2.32-3.57-4.56-.76-6.63,47.93-35.44,55.43-38.46,75.94-38.46C332.89,243.26,346.09,243.52,350.81,243.61Zm-4.77,6.22a3.83,3.83,0,1,0-3.83,3.84A3.83032,3.83032,0,0,0,346.04,249.83Zm-12.16,21.34c.65-1.67,2.15-4.64.83-6.25-1.29-1.58-4.85-.15-6,.26-16.71,5.84-31.39,14-47.4,21.44a2.044,2.044,0,0,0-.24,3.54c9.93,8.34,26.38,5.36,30.25,3.68C321.79,289.29,329.68,282,333.88,271.17Zm0-21.34a3.835,3.835,0,1,0-3.84,3.84A3.83887,3.83887,0,0,0,333.88,249.83Z" transform="translate(-78.83597 -59.81274)"/><path class="cls-2" d="M342.21,246a3.835,3.835,0,1,1-3.83,3.83A3.83032,3.83032,0,0,1,342.21,246Z" transform="translate(-78.83597 -59.81274)"/><path class="cls-2" d="M317.11,167.24a25.235,25.235,0,1,1-25.23,25.24A25.231,25.231,0,0,1,317.11,167.24ZM327,192.48a9.89,9.89,0,1,0-9.89,9.89A9.88628,9.88628,0,0,0,327,192.48Z" transform="translate(-78.83597 -59.81274)"/><path class="cls-2" d="M334.71,264.92c1.32,1.61-.18,4.58-.83,6.25-4.2,10.83-12.09,18.12-22.56,22.67-3.87,1.68-20.32,4.66-30.25-3.68a2.044,2.044,0,0,1,.24-3.54c16.01-7.44,30.69-15.6,47.4-21.44C329.86,264.77,333.42,263.34,334.71,264.92Z" transform="translate(-78.83597 -59.81274)"/><path class="cls-2" d="M330.04,246a3.835,3.835,0,1,1-3.83,3.83A3.83887,3.83887,0,0,1,330.04,246Z" transform="translate(-78.83597 -59.81274)"/><path class="cls-1" d="M317.27,409.63c8.86,4.48,13.9,13.87,13.78,33.2-.01,2.19-1.83,1.45-2.95,1.45-18.94.05-37.88,0-56.82.06-5.67.01-3.66-3.92-4.05-6.32.21-14.53,10.12-30.9,29.49-31.01C303.6,406.97,310.84,406.39,317.27,409.63Z" transform="translate(-78.83597 -59.81274)"/><circle class="cls-3" cx="238.27403" cy="132.66726" r="9.89"/><path class="cls-1" d="M293.7,241.17c1.13,2.58.3,3.95-2.95,6.12-16.75,11.18-26.35,16.56-41.71,28.06-7.52,5.62-9.69,1.63-13.02-2.55-4.85-6.07-10.48-11.87-14.89-18.13-4.11-5.82-25.1-63.38-25.41-65.36,18.74-42.48,31.91-49.29,48.02-57.13,4.68-2.28,5.12.63,6.32,3.57q17.19,42.3,34.49,84.56C287.43,227.33,290.65,234.21,293.7,241.17Zm-28.78-21.43a25.23,25.23,0,1,0-25.23,25.23A25.231,25.231,0,0,0,264.92,219.74Z" transform="translate(-78.83597 -59.81274)"/><path class="cls-2" d="M272.72,155.33a3.835,3.835,0,1,1-3.84,3.84A3.83887,3.83887,0,0,1,272.72,155.33Z" transform="translate(-78.83597 -59.81274)"/><path class="cls-4" d="M271.3,328.28c1.17,1.15,2,2.12,1.53,3.81-1.79,6.44-11.24,13.37-20.68,13.2-8.21-.63-16.31-6.27-23.16-14.09-1.8-2.04-1.31-4.14.32-6.28,4.97-6.54,11.49-11.41,17.65-16.67,1.66-1.42,3.2-1.19,4.77.41Q261.435,318.545,271.3,328.28Z" transform="translate(-78.83597 -59.81274)"/><path class="cls-2" d="M268.21,143.83a3.835,3.835,0,1,1-3.83,3.84A3.83246,3.83246,0,0,1,268.21,143.83Z" transform="translate(-78.83597 -59.81274)"/><path class="cls-2" d="M262.09,131.5a3.835,3.835,0,1,1-3.83,3.83A3.83032,3.83032,0,0,1,262.09,131.5Z" transform="translate(-78.83597 -59.81274)"/><path class="cls-2" d="M259.83,362.5a3.835,3.835,0,1,1-3.83,3.83A3.83887,3.83887,0,0,1,259.83,362.5Z" transform="translate(-78.83597 -59.81274)"/><path class="cls-1" d="M266,358.17c0,6.66-6.72,40.95-8.02,46.43-.7,2.93-2.49,1.72-3.87.35-8.58-8.52-20.97-14.55-32.99-14.9-11.79-.34-21.47,1.53-31.8,8.57-1.01.69-2.38,1.28-3.12.16-1.43-2.15-2.92-4.44-2.19-7.29,5.15-20.24,9.67-41.39,14.38-61.73,3.95-17.07,15.4-29.19,22.54-44.55,1.53-3.29,3.92-3.17,6.34-.93,10.63,9.87,9.73,10.22.18,18.48-3.7,3.45-8.44,6.99-11.43,11.04-8.11,10.96-6.88,19.19,2.25,29.34C228.64,354.66,245.67,365.33,266,358.17Zm-2.33,8.16a3.835,3.835,0,1,0-3.84,3.84A3.83887,3.83887,0,0,0,263.67,366.33Zm-2.36,12.5a3.835,3.835,0,1,0-3.84,3.84A3.83887,3.83887,0,0,0,261.31,378.83Zm-3.84,13.67a3.83,3.83,0,1,0-3.83,3.83A3.82394,3.82394,0,0,0,257.47,392.5Z" transform="translate(-78.83597 -59.81274)"/><path class="cls-2" d="M257.47,375a3.835,3.835,0,1,1-3.83,3.83A3.83887,3.83887,0,0,1,257.47,375Z" transform="translate(-78.83597 -59.81274)"/><path class="cls-2" d="M239.69,194.5a25.235,25.235,0,1,1-25.23,25.24A25.231,25.231,0,0,1,239.69,194.5Zm9.89,25.24a9.89,9.89,0,1,0-9.89,9.89A9.88628,9.88628,0,0,0,249.58,219.74Z" transform="translate(-78.83597 -59.81274)"/><circle class="cls-2" cx="174.80403" cy="332.68726" r="3.83"/><path class="cls-1" d="M247.54,422.04c1.81,3.1,6.42,19.43,2.47,22.03-19.61.08-39.22.1-58.82.29-4.76.05-3.97.51-4-5.34.48-17.02,6.62-28.82,18.26-30.96C223.44,404.75,238.57,406.62,247.54,422.04Z" transform="translate(-78.83597 -59.81274)"/><circle class="cls-5" cx="160.85403" cy="159.92726" r="9.89"/><path class="cls-1" d="M175.23,182.53c.6.52,1.6,1.23,1.54,1.75-.17,1.37-1.55.75-2.42.91-16.01,2.99-31.95,6.69-48.09,8.6-8.57,1.02-17.06,2.71-25.69,3.28-3.42.23-4.51-.89-4.76-4.43-1.52-21.77,12.07-26.18,29.03-27.65,1.65-.15,3.33-.02,4.99-.02C147.03,165.49,162.25,171.13,175.23,182.53Z" transform="translate(-78.83597 -59.81274)"/><path class="cls-1" d="M176.56,412.19c.6,1.35-.44,3.42-1.02,4.8-3.3,7.79-4.46,15.92-4.57,24.29-.01,1.29.79,3.34-1.96,2.79H116.99c-3.19.52-2.94-1.69-2.97-3.71-.19-13.5,9.76-33.78,26.93-37.77a86.71006,86.71006,0,0,1,15.38-2.24C168.33,399.33,172.54,403.13,176.56,412.19Z" transform="translate(-78.83597 -59.81274)"/><path class="cls-1" d="M154.85,379.6c1.32,1.22,1.74,3.41,2.2,5.25-13.55-.35-14.38,4.15-18.24-5.46-2.42-7.57-3.81-8.5-6.51-22.47-1.09-5.69-.13-19.59,3.53-22.59C137.83,349.33,142.5,368.17,154.85,379.6Z" transform="translate(-78.83597 -59.81274)"/><path class="cls-6" d="M140,278a10.165,10.165,0,1,1-10.17,10.17A10.17222,10.17222,0,0,1,140,278Z" transform="translate(-78.83597 -59.81274)"/><path class="cls-7" d="M252.15,345.29c-8.21-.63-16.31-6.27-23.16-14.09-1.8-2.04-1.31-4.14.32-6.28,4.97-6.54,11.49-11.41,17.65-16.67,1.66-1.42,3.2-1.19,4.77.41q9.705,9.885,19.57,19.62c1.17,1.15,2,2.12,1.53,3.81C271.04,338.53,261.59,345.46,252.15,345.29Z" transform="translate(-78.83597 -59.81274)"/><circle class="cls-7" cx="238.27403" cy="132.66726" r="9.89"/><path class="cls-7" d="M317.11,167.24a25.235,25.235,0,1,1-25.23,25.24A25.231,25.231,0,0,1,317.11,167.24Z" transform="translate(-78.83597 -59.81274)"/><path class="cls-8" d="M239.69,194.5a25.235,25.235,0,1,1-25.23,25.24A25.231,25.231,0,0,1,239.69,194.5Z" transform="translate(-78.83597 -59.81274)"/><circle class="cls-8" cx="160.85403" cy="159.92726" r="9.89"/><path class="cls-7" d="M140,278a10.165,10.165,0,1,1-10.17,10.17A10.17222,10.17222,0,0,1,140,278Z" transform="translate(-78.83597 -59.81274)"/><path class="cls-7" d="M263.67,366.33a3.835,3.835,0,1,1-3.84-3.83A3.841,3.841,0,0,1,263.67,366.33Z" transform="translate(-78.83597 -59.81274)"/><path class="cls-7" d="M333.88,249.83a3.835,3.835,0,1,1-3.84-3.83A3.841,3.841,0,0,1,333.88,249.83Z" transform="translate(-78.83597 -59.81274)"/><path class="cls-7" d="M265.92,135.33a3.83,3.83,0,1,1-3.83-3.83A3.83246,3.83246,0,0,1,265.92,135.33Z" transform="translate(-78.83597 -59.81274)"/><path class="cls-7" d="M272.04,147.67a3.83,3.83,0,1,1-3.83-3.84A3.83032,3.83032,0,0,1,272.04,147.67Z" transform="translate(-78.83597 -59.81274)"/><path class="cls-7" d="M276.55,159.17a3.835,3.835,0,1,1-3.83-3.84A3.83674,3.83674,0,0,1,276.55,159.17Z" transform="translate(-78.83597 -59.81274)"/><path class="cls-7" d="M346.04,249.83a3.83,3.83,0,1,1-3.83-3.83A3.83246,3.83246,0,0,1,346.04,249.83Z" transform="translate(-78.83597 -59.81274)"/><path class="cls-7" d="M261.31,378.83a3.835,3.835,0,1,1-3.84-3.83A3.841,3.841,0,0,1,261.31,378.83Z" transform="translate(-78.83597 -59.81274)"/><circle class="cls-7" cx="174.80403" cy="332.68726" r="3.83"/><path class="cls-8" d="M334.71,264.92c-1.29-1.58-4.85-.15-6,.26-16.71,5.84-31.39,14-47.4,21.44a2.044,2.044,0,0,0-.24,3.54c9.93,8.34,26.38,5.36,30.25,3.68,10.47-4.55,18.36-11.84,22.56-22.67C334.53,269.5,336.03,266.53,334.71,264.92Z" transform="translate(-78.83597 -59.81274)"/><path class="cls-8" d="M433.54,85.72c-12.91-26.44-34.29-31.86-61.24-19.39-20.26,9.38-32.87,25.84-41.74,45.62-1.73,3.83-3.05,5-7.34,2.64-12.03-6.64-25.01-10.11-38.91-9.4-12.66.65-24.75,4.16-36.56,8.29-26.72,9.35-45.8,27.4-57.75,52.97-1.79,3.83-3.35,3.85-6.53,1.44a103.9766,103.9766,0,0,0-32.11-16.28c-18.68-5.83-36.69-4.52-53.92,4.26-14.45,7.36-21.41,26.61-17.32,43.53,2.66,11.03,8.55,15.23,19.82,14.23,10.59-.95,21.11-2.77,31.61-4.49,15.89-2.61,31.74-5.44,47.6-8.25,3.37-.6,4.88.38,6.05,3.87,3.5,10.45,7.16,20.9,11.59,30.98,4.87,11.09,6.46,23.63,14.59,33.29.92,1.09-.03,2.24-.58,3.22-2.92,5.18-5.96,10.3-8.82,15.51-5.59,10.22-12.64,19.98-16.27,30.87-5.73,17.16-9.13,35.09-13.54,52.69-.21.85.27,2.35-1.1,2.3-.73-.02-1.35-1.26-2.12-1.82-11.95-8.68-18.16-34.81-17.45-38.68A82.00838,82.00838,0,0,0,162.65,331c.32-.09,6.16-2.88,6.19-6.55a9.05336,9.05336,0,0,0-4.73-7.9c-4.22-2.43-18.64.25-19.11-2.17-.46-2.37,3.78-3.62,4.91-4.15,11.2-5.27,17.3-14.71,15.07-26.52-1.94-10.34-11.5-17.91-23.57-18.68-9.11-.57-18.61,5.27-22.58,13.88-4.74,10.26-2.81,20.11,5.55,28.37,1.49,1.46,3.95,2.31,2.96,5.26-1.06,3.13-2.98,3.84-6.41,4.08-5.64.39-12.26,1-17.56,3.29-3.22,1.39-4.88,4.71-4.91,8.23-.03,3.42,2.65,5.55,5.69,6.95,2.8,1.28,8.73,1.16,13.98.87-1.49,6.5-2.06,19.76-.89,26.55,1.58,9.15,5.42,17.29,9.14,25.57.73,1.64,2.17,3.45-.21,4.72-11.42,6.08-18.11,16.1-23.87,27.25-5.36,10.38-4.52,28.04,2.7,36.95H403c6.63-9.8,7.23-20.34,3.53-31.24-6.41-18.89-17.46-33.82-38.38-38.04-4.61-.93-10.3-1.16-14.97-2.15-2.21-.46-2.8-1.12-2.9-3.45-.92-20.63-4.21-70.4-2.95-72.95,1.27-2.56,20.84-9,20.84-21.74.02-25.8,1.86-51.58,3-77.36.18-4.15.34-8.02-1.33-12.16-7.31-18.08-14.16-36.35-21.15-54.56-.74-1.94.43-2.74,2.13-3.33,23.37-8.15,46.23-17.62,69.16-26.94C434.39,107.22,439.52,97.98,433.54,85.72Z" transform="translate(-78.83597 -59.81274)"/><path class="cls-8" d="M174.35,185.19c-16.01,2.99-31.95,6.69-48.09,8.6-8.57,1.02-17.06,2.71-25.69,3.28-3.42.23-4.51-.89-4.76-4.43-1.52-21.77,12.07-26.18,29.03-27.65,1.65-.15,3.33-.02,4.99-.02,17.2.52,32.42,6.16,45.4,17.56.6.52,1.6,1.23,1.54,1.75C176.6,185.65,175.22,185.03,174.35,185.19Z" transform="translate(-78.83597 -59.81274)"/><path class="cls-8" d="M195.72,189.31c18.74-42.48,31.91-49.29,48.02-57.13,4.68-2.28,5.12.63,6.32,3.57q17.19,42.3,34.49,84.56c2.88,7.02,6.1,13.9,9.15,20.86,1.13,2.58.3,3.95-2.95,6.12-16.75,11.18-26.35,16.56-41.71,28.06-7.52,5.62-9.69,1.63-13.02-2.55-4.85-6.07-10.48-11.87-14.89-18.13C217.02,248.85,196.03,191.29,195.72,189.31Z" transform="translate(-78.83597 -59.81274)"/><path class="cls-8" d="M154.85,379.6c1.32,1.22,1.74,3.41,2.2,5.25-13.55-.35-14.38,4.15-18.24-5.46-2.42-7.57-3.81-8.5-6.51-22.47-1.09-5.69-.13-19.59,3.53-22.59C137.83,349.33,142.5,368.17,154.85,379.6Z" transform="translate(-78.83597 -59.81274)"/><path class="cls-8" d="M175.54,416.99c-3.3,7.79-4.46,15.92-4.57,24.29-.01,1.29.79,3.34-1.96,2.79H116.99c-3.19.52-2.94-1.69-2.97-3.71-.19-13.5,9.76-33.78,26.93-37.77a86.71006,86.71006,0,0,1,15.38-2.24c12-1.02,16.21,2.78,20.23,11.84C177.16,413.54,176.12,415.61,175.54,416.99Z" transform="translate(-78.83597 -59.81274)"/><path class="cls-8" d="M250.01,444.07c-19.61.08-39.22.1-58.82.29-4.76.05-3.97.51-4-5.34.48-17.02,6.62-28.82,18.26-30.96,17.99-3.31,33.12-1.44,42.09,13.98C249.35,425.14,253.96,441.47,250.01,444.07Z" transform="translate(-78.83597 -59.81274)"/><path class="cls-8" d="M254.11,404.95c-8.58-8.52-20.97-14.55-32.99-14.9-11.79-.34-21.47,1.53-31.8,8.57-1.01.69-2.38,1.28-3.12.16-1.43-2.15-2.92-4.44-2.19-7.29,5.15-20.24,9.67-41.39,14.38-61.73,3.95-17.07,15.4-29.19,22.54-44.55,1.53-3.29,3.92-3.17,6.34-.93,10.63,9.87,9.73,10.22.18,18.48-3.7,3.45-8.44,6.99-11.43,11.04-8.11,10.96-6.88,19.19,2.25,29.34,10.37,11.52,27.4,22.19,47.73,15.03,0,6.66-6.72,40.95-8.02,46.43C257.28,407.53,255.49,406.32,254.11,404.95Z" transform="translate(-78.83597 -59.81274)"/><path class="cls-8" d="M328.1,444.28c-18.94.05-37.88,0-56.82.06-5.67.01-3.66-3.92-4.05-6.32.21-14.53,10.12-30.9,29.49-31.01,6.88-.04,14.12-.62,20.55,2.62,8.86,4.48,13.9,13.87,13.78,33.2C331.04,445.02,329.22,444.28,328.1,444.28Z" transform="translate(-78.83597 -59.81274)"/><path class="cls-8" d="M331.21,396.72c-.53,2.07-1,2.07-3.24,1.01-19.1-9.04-39.14-12.9-61.97,4.27,2.33-8.67,6.83-38.17,8.65-48.07,1.42-3.6,11.35-12.68,14.85-23.1,3.45-2.09,23.5-4.53,37.98-12.04,2.78-1.44,3.74-1.01,3.69,2.21-.07,4.49,2.77,58.01,2.77,58.01S332.46,391.81,331.21,396.72Z" transform="translate(-78.83597 -59.81274)"/><path class="cls-8" d="M390.57,437.92c.15,4.49.97,6.47-3.97,6.43-4.93-.04-28.91-.27-34.88-.02-3.18.13-4.96-.98-4.82-3.98.31-7.01-.08-13.71-2.35-20.41-2-5.9-.39-15.51,2.49-19.68C360,398.83,389.5,404.83,390.57,437.92Z" transform="translate(-78.83597 -59.81274)"/><path class="cls-8" d="M352.47,279.28c.18,6.64-2.58,10.69-7.86,14.08-17.91,11.49-36.31,21.59-58.25,22.84a9.2018,9.2018,0,0,1-7.85-3.06q-12.405-12.735-25.18-25.09c-2.4-2.32-3.57-4.56-.76-6.63,47.93-35.44,55.43-38.46,75.94-38.46,4.38.3,17.58.56,22.3.65a2.25627,2.25627,0,0,1,2.31,2.39C353.12,251.47,352.22,269.74,352.47,279.28Z" transform="translate(-78.83597 -59.81274)"/><path class="cls-8" d="M354.08,202.88c.66,3.95-.34,29.59-.32,32.32.02,1.93-.37,2.85-2.7,2.64-24.85-2.34-38.71-.35-45.22,1.85-2.8.94-4.67,2.6-5.98-.63C290.92,217,254.5,130.83,254.5,130.83s-2.53-3.66,5.27-5.65c14.95-3.82,28.91-6.47,44.14-2.23,8.64,2.4,17.53,7.67,24.38,13.4,4.76,3.99,5.17,10.5,7.27,15.97C341.66,168.19,352.65,198.78,354.08,202.88Z" transform="translate(-78.83597 -59.81274)"/><path class="cls-8" d="M349.37,123.44s-5.37,2.33-6.76.46c-1.64-2.21,10.49-30.65,34.06-42.64,7.01-3.57,13.19-6.45,22.26-6.23S419.37,87.95,419.5,96.3C419.51,95.69,349.37,123.44,349.37,123.44Z" transform="translate(-78.83597 -59.81274)"/></svg>