<?xml version="1.0" encoding="iso-8859-1"?>
<!-- Generator: Adobe Illustrator 18.0.0, SVG Export Plug-In . SVG Version: 6.00 Build 0)  -->
<!DOCTYPE svg PUBLIC "-//W3C//DTD SVG 1.1//EN" "http://www.w3.org/Graphics/SVG/1.1/DTD/svg11.dtd">
<svg version="1.1" id="Capa_1" xmlns="http://www.w3.org/2000/svg" xmlns:xlink="http://www.w3.org/1999/xlink" x="0px" y="0px"
	 viewBox="0 0 297 297" style="enable-background:new 0 0 297 297;" xml:space="preserve">
<g>
	<path d="M112.142,67.735c-3.879,3.879-3.879,10.168-0.001,14.047c3.878,3.881,10.168,3.881,14.048,0
		c12.299-12.295,32.318-12.289,44.622,0.02c1.94,1.938,4.483,2.908,7.025,2.908c2.542,0,5.083-0.971,7.024-2.908
		c3.878-3.879,3.878-10.17,0-14.049C164.807,47.704,132.186,47.693,112.142,67.735z"/>
	<path d="M102.464,58.055c25.379-25.377,66.683-25.365,92.071,0.025c1.941,1.938,4.482,2.909,7.024,2.909
		c2.542,0,5.084-0.971,7.024-2.909c3.878-3.88,3.878-10.169,0-14.049c-33.138-33.137-87.043-33.146-120.167-0.025
		c-3.881,3.879-3.881,10.168-0.001,14.048C92.295,61.934,98.585,61.934,102.464,58.055z"/>
	<path d="M266.207,160.149h-26.535V70.788c0-5.484-4.448-9.933-9.934-9.933c-5.485,0-9.933,4.448-9.933,9.933v89.361h-61.372V131.92
		c0-5.485-4.448-9.932-9.934-9.932c-5.485,0-9.934,4.446-9.934,9.932v28.229H77.194V70.788c0-5.484-4.447-9.933-9.933-9.933
		c-5.485,0-9.934,4.448-9.934,9.933v89.361H30.793C13.812,160.149,0,173.961,0,190.942v56.094c0,16.979,13.812,30.792,30.793,30.792
		h235.414c16.98,0,30.793-13.813,30.793-30.792v-56.094C297,173.961,283.187,160.149,266.207,160.149z M277.133,247.036
		c0,6.025-4.901,10.927-10.926,10.927H125.828v-6.37c0-5.484-4.447-9.932-9.934-9.932c-5.485,0-9.932,4.447-9.932,9.932v6.37H93.226
		v-6.37c0-5.484-4.448-9.932-9.934-9.932c-5.485,0-9.934,4.447-9.934,9.932v6.37H60.622v-6.37c0-5.484-4.448-9.932-9.934-9.932
		c-5.485,0-9.934,4.447-9.934,9.932v6.37h-9.962c-6.024,0-10.928-4.901-10.928-10.927v-56.094c0-6.025,4.903-10.926,10.928-10.926
		h235.414c6.024,0,10.926,4.9,10.926,10.926V247.036z"/>
	<path d="M246.308,209.056c-2.612,0-5.175,1.063-7.023,2.91c-1.848,1.849-2.91,4.411-2.91,7.022c0,2.613,1.062,5.176,2.91,7.023
		c1.849,1.846,4.411,2.91,7.023,2.91c2.622,0,5.175-1.064,7.023-2.91c1.846-1.848,2.908-4.41,2.908-7.023
		c0-2.611-1.063-5.174-2.908-7.022C251.482,210.12,248.93,209.056,246.308,209.056z"/>
	<path d="M213.707,209.056c-2.612,0-5.175,1.063-7.022,2.91c-1.847,1.849-2.911,4.411-2.911,7.022c0,2.613,1.064,5.176,2.911,7.023
		c1.848,1.846,4.41,2.91,7.022,2.91c2.612,0,5.175-1.064,7.022-2.91c1.85-1.848,2.91-4.41,2.91-7.023
		c0-2.611-1.061-5.174-2.91-7.022C218.882,210.12,216.319,209.056,213.707,209.056z"/>
	<path d="M181.108,209.056c-2.623,0-5.177,1.063-7.023,2.91c-1.858,1.849-2.91,4.411-2.91,7.022c0,2.613,1.052,5.176,2.91,7.023
		c1.847,1.846,4.411,2.91,7.023,2.91s5.164-1.064,7.021-2.91c1.849-1.848,2.911-4.41,2.911-7.023c0-2.611-1.063-5.174-2.911-7.022
		C186.283,210.12,183.721,209.056,181.108,209.056z"/>
</g>
<g>
</g>
<g>
</g>
<g>
</g>
<g>
</g>
<g>
</g>
<g>
</g>
<g>
</g>
<g>
</g>
<g>
</g>
<g>
</g>
<g>
</g>
<g>
</g>
<g>
</g>
<g>
</g>
<g>
</g>
</svg>
